<?xml version="1.0" encoding="utf-8"?>
<!-- Generator: Adobe Illustrator 22.0.1, SVG Export Plug-In . SVG Version: 6.00 Build 0)  -->
<svg version="1.1" id="Layer_1" xmlns="http://www.w3.org/2000/svg" xmlns:xlink="http://www.w3.org/1999/xlink" x="0px" y="0px"
	 viewBox="0 0 845 405" style="enable-background:new 0 0 845 405;" xml:space="preserve">
<style type="text/css">

	
	.st0{fill:none;}
	.st1{fill:#FFFFFF;}
	.st2{fill:#9FE4FF;}
	.st3{fill:#FFFEF7;}
	.st4{fill:#19567C;}
	.st5{fill:#236791;}
	.st6{fill:#3680AD;}
	.st7{fill:rgb(96, 206, 184);}
	.st8{fill:#411661;}
	.st9{fill:#FF5F6F;}
	.st10{fill:#CF595F;}
	.st11{fill:#F5956D;}
	.st12{fill:#FCCC44;}
	.st13{fill:#FDBC42;}
	.st14{opacity:0.2;fill:url(#SVGID_1_);}
	.st15{opacity:0.2;fill:url(#SVGID_2_);}
</style>
<pattern  x="-77.5" y="-0.4" width="12.6" height="12.6" patternUnits="userSpaceOnUse" id="New_Pattern" viewBox="0 -12.6 12.6 12.6" style="overflow:visible;">
	<g>
		<rect y="-12.6" class="st0" width="12.6" height="12.6"/>
		<circle class="st1" cx="6.3" cy="-6.3" r="1.7"/>
		<path class="st1" d="M1.7-12.6H0v1.7C0.9-10.9,1.7-11.7,1.7-12.6z"/>
		<path class="st1" d="M0-1.7V0h1.7C1.7-0.9,0.9-1.7,0-1.7z"/>
		<path class="st1" d="M12.6-10.9v-1.7h-1.7C10.9-11.7,11.7-10.9,12.6-10.9z"/>
		<path class="st1" d="M12.6-1.7c-0.9,0-1.7,0.8-1.7,1.7h1.7V-1.7z"/>
	</g>
</pattern>
<ellipse class="st2" cx="423.5" cy="453" rx="219.3" ry="193.3"/>
<g>
	<polygon class="st3" points="565.2,95.2 571,55.9 603,82.9 668.4,26.9 659.9,97.5 707.5,90.8 684.9,127 770.4,134.3 665.6,168.2
		700.8,208.1 638.8,204.3 	"/>
	<polygon class="st3" points="281.8,95.2 276,55.9 244,82.9 178.6,26.9 187.1,97.5 139.5,90.8 162.1,127 76.6,134.3 181.4,168.2
		146.2,208.1 208.2,204.3 	"/>
</g>
<g>
	<g>
		<path class="st4" d="M353.8,50.4c0.1,0.6,0.1,1,0.2,1.6c0.1,0.5-0.3,0.8-0.8,0.9c-0.9,0.1-1.4,0.2-2.4,0.3c1,8.4,1.5,12.6,2.4,21
			c0,0.4-0.3,0.8-0.7,0.9c-0.7,0.1-1,0.1-1.6,0.2c-0.5,0.1-0.9-0.3-0.9-0.7c-1-8.4-1.5-12.6-2.5-21c-0.9,0.1-1.4,0.2-2.4,0.3
			c-0.5,0.1-0.9-0.2-0.9-0.7c-0.1-0.6-0.1-1-0.2-1.6c-0.1-0.5,0.3-0.9,0.7-0.9c3.3-0.4,4.9-0.6,8.1-1
			C353.4,49.7,353.8,50,353.8,50.4z"/>
		<path class="st4" d="M370.3,53.9c0.6,7.4,0.9,11,1.6,18.4c0,0.5-0.3,0.8-0.7,0.9c-0.7,0.1-1,0.1-1.6,0.1c-0.5,0-0.8-0.3-0.9-0.7
			c-0.4-4-0.5-6.1-0.9-10.1c-2.1,0.2-3.2,0.3-5.3,0.5c0.4,4,0.6,6,1,10.1c0,0.5-0.3,0.8-0.7,0.9c-0.7,0.1-1,0.1-1.6,0.2
			c-0.5,0-0.8-0.3-0.9-0.7c-0.8-7.4-1.2-11-1.9-18.4c-0.3-3.2,2.1-6.1,5.5-6.4C367.1,48.3,370.1,50.7,370.3,53.9z M367,54.2
			c-0.1-1.4-1.4-2.5-2.9-2.3c-1.5,0.1-2.6,1.4-2.5,2.8c0.2,2,0.3,3,0.5,5.1c2.1-0.2,3.2-0.3,5.4-0.5C367.3,57.3,367.2,56.3,367,54.2
			z"/>
		<path class="st4" d="M387,55.2c0.1,1.7-0.5,3.2-1.6,4.3c1.3,1,2,2.5,2.1,4.2c0.1,1,0.1,1.5,0.1,2.4c0.2,3.3-2.3,6-5.5,6.3
			c-1.7,0.1-2.6,0.2-4.3,0.3c-0.9,0.1-1.7-0.6-1.8-1.5c-0.7-8.8-1-13.1-1.7-21.9c-0.1-0.9,0.6-1.7,1.6-1.8c1.8-0.1,2.7-0.2,4.5-0.3
			c3.3-0.2,6.3,2.3,6.4,5.5C386.9,53.7,386.9,54.2,387,55.2z M383.5,53c-0.1-1.5-1.4-2.6-2.9-2.5c-1.1,0.1-1.6,0.1-2.7,0.2
			c0.2,3.1,0.3,4.6,0.6,7.7c1.1-0.1,1.6-0.1,2.7-0.2c1.5-0.1,2.6-1.3,2.5-2.8C383.6,54.4,383.5,53.9,383.5,53z M381.3,61.4
			c-1.1,0.1-1.6,0.1-2.7,0.2c0.2,3.1,0.3,4.6,0.6,7.7c1.1-0.1,1.6-0.1,2.7-0.2c1.4-0.1,2.5-1.3,2.4-2.8c-0.1-1-0.1-1.5-0.2-2.4
			C384.1,62.4,382.8,61.3,381.3,61.4z"/>
		<path class="st4" d="M400.5,69c0,0.7,0,1,0.1,1.6c0,0.4-0.3,0.8-0.8,0.8c-2.4,0.1-3.6,0.1-6,0.3c-0.9,0-1.7-0.7-1.7-1.5
			c-0.5-9.1-0.7-13.6-1.2-22.7c0-0.5,0.3-0.8,0.8-0.9c0.7,0,1-0.1,1.7-0.1c0.4,0,0.9,0.3,0.9,0.8c0.4,8.4,0.6,12.7,1,21.1
			c1.8-0.1,2.6-0.1,4.4-0.2C400.2,68.2,400.5,68.5,400.5,69z"/>
		<path class="st4" d="M407,49.2c0.1,3.1,0.1,4.6,0.2,7.7c1.8,0,2.7-0.1,4.5-0.1c0.5,0,0.8,0.3,0.9,0.8c0,0.7,0,1,0,1.6
			c0,0.5-0.3,0.8-0.8,0.8c-1.8,0-2.7,0.1-4.5,0.1c0.1,3.1,0.1,4.6,0.2,7.7c1.8,0,2.7-0.1,4.5-0.1c0.5,0,0.8,0.3,0.8,0.8
			c0,0.7,0,1,0,1.6c0,0.5-0.3,0.8-0.8,0.8c-2.4,0-3.6,0.1-6.1,0.1c-0.9,0-1.7-0.7-1.7-1.6c-0.3-8.8-0.4-13.2-0.7-21.9
			c0-0.9,0.7-1.7,1.6-1.7c2.5-0.1,3.8-0.1,6.3-0.2c0.5,0,0.9,0.3,0.9,0.8c0,0.7,0,1,0,1.6c0,0.5-0.4,0.8-0.8,0.8
			C409.8,49.2,408.9,49.2,407,49.2z"/>
		<path class="st4" d="M433.8,46.7c0,0.7,0,1,0,1.6c0,0.5-0.4,0.8-0.9,0.8c-1,0-1.4,0-2.4,0c-0.1,8.5-0.1,12.7-0.2,21.1
			c0,0.4-0.4,0.8-0.8,0.8c-0.7,0-1,0-1.6,0c-0.5,0-0.8-0.4-0.8-0.8c0-8.5,0.1-12.7,0.1-21.1c-1,0-1.4,0-2.4,0
			c-0.5,0-0.8-0.4-0.8-0.8c0-0.7,0-1,0-1.6c0-0.5,0.4-0.8,0.9-0.8c3.3,0,4.9,0,8.2,0.1C433.5,45.8,433.8,46.2,433.8,46.7z"/>
		<path class="st4" d="M441,49.3c-0.1,3.1-0.1,4.6-0.2,7.7c1.8,0,2.7,0.1,4.5,0.1c0.5,0,0.8,0.4,0.8,0.8c0,0.7,0,1-0.1,1.6
			c0,0.5-0.4,0.8-0.9,0.8c-1.8-0.1-2.7-0.1-4.5-0.1c-0.1,3.1-0.1,4.6-0.2,7.7c1.8,0,2.7,0.1,4.5,0.1c0.5,0,0.8,0.4,0.8,0.8
			c0,0.7,0,1-0.1,1.6c0,0.5-0.4,0.8-0.8,0.8c-2.4-0.1-3.6-0.1-6.1-0.2c-0.9,0-1.6-0.8-1.6-1.7c0.2-8.8,0.3-13.2,0.5-21.9
			c0-0.9,0.8-1.6,1.7-1.6c2.5,0.1,3.8,0.1,6.3,0.2c0.5,0,0.8,0.4,0.8,0.8c0,0.7,0,1-0.1,1.6c0,0.5-0.4,0.8-0.9,0.8
			C443.8,49.3,442.9,49.3,441,49.3z"/>
		<path class="st4" d="M462.9,52.8c-0.5,7.4-0.7,11.1-1.1,18.5c0,0.4-0.4,0.8-0.9,0.8c-0.7,0-1-0.1-1.6-0.1c-0.5,0-0.8-0.5-0.8-0.9
			c0.4-7.4,0.6-11.1,1-18.5c0.1-1.4-1.1-2.7-2.5-2.7c-1.5-0.1-2.8,1-2.9,2.5c-0.4,7.4-0.5,11.1-0.9,18.5c0,0.4-0.4,0.8-0.9,0.8
			c-0.7,0-1,0-1.6-0.1c-0.5,0-0.8-0.4-0.8-0.8c0.3-7.4,0.5-11.1,0.8-18.5c0.1-3.2,3-5.7,6.4-5.6C460.5,46.8,463.1,49.6,462.9,52.8z"
			/>
		<path class="st4" d="M479.4,54.1c-0.7,7.4-1,11.1-1.6,18.5c0,0.4-0.4,0.8-0.9,0.7c-0.7-0.1-1-0.1-1.6-0.1c-0.5,0-0.8-0.5-0.7-0.9
			c0.6-7.4,0.9-11.1,1.5-18.5c0.1-1.4-1-2.7-2.5-2.8c-1.5-0.1-2.8,1-2.9,2.4c-0.6,7.4-0.8,11.1-1.4,18.5c0,0.4-0.4,0.8-0.9,0.8
			c-0.7,0-1-0.1-1.6-0.1c-0.5,0-0.8-0.5-0.8-0.9c0.5-7.4,0.8-11.1,1.3-18.5c0.2-3.2,3.2-5.7,6.6-5.4C477.1,48,479.6,50.9,479.4,54.1
			z"/>
		<path class="st4" d="M485.2,73.2c0,0.5-0.4,0.8-0.9,0.7c-0.7-0.1-1-0.1-1.6-0.2c-0.5,0-0.8-0.4-0.7-0.9c0.9-9.4,1.3-14.1,2.2-23.5
			c0-0.5,0.4-0.8,0.9-0.7c0.7,0.1,1,0.1,1.7,0.2c0.4,0,0.8,0.4,0.8,0.9C486.6,59.2,486.2,63.9,485.2,73.2z"/>
		<path class="st4" d="M499.4,57.9c0.1-0.7,0.1-1,0.2-1.7c0.2-1.4-0.9-2.7-2.4-2.9c-1.5-0.2-2.8,0.9-3,2.3c-0.1,0.7-0.1,0.7,0.1,0.9
			c2.5,4.1,3.7,6.1,6.1,10.2c1,1.8,1,1.8,0.8,3.4c-0.4,3.2-3.4,5.5-6.6,5.1c-3.2-0.4-5.6-3.3-5.2-6.5c0.1-0.7,0.1-1,0.2-1.7
			c0-0.5,0.4-0.8,0.9-0.7c0.7,0.1,1,0.1,1.6,0.2c0.5,0.1,0.8,0.4,0.7,0.9c-0.1,0.7-0.1,1-0.2,1.7c-0.2,1.4,0.9,2.7,2.3,2.9
			c1.4,0.2,2.7-0.9,2.9-2.3c0.1-0.7,0.1-0.7-0.1-0.9c-2.4-4.1-3.6-6.1-6.1-10.1c-1.1-1.8-1.1-1.8-0.9-3.4c0.3-3.2,3.4-5.5,6.7-5.1
			c3.3,0.4,5.7,3.4,5.3,6.5c-0.1,0.7-0.1,1-0.2,1.7c-0.1,0.5-0.5,0.8-0.9,0.7c-0.7-0.1-1-0.1-1.7-0.2
			C499.7,58.8,499.3,58.4,499.4,57.9z"/>
	</g>
</g>
<g>
	<g>
		<path class="st1" d="M203.8,113.1c-12.1,3.1-19.6,14.2-16.7,24.4c0.6,2.2,1.2,4.4,1.9,6.6c0.6,2,1,3.3,1.6,4.4
			c0.1,1.2,0.3,2.3,0.6,3.4c0.6,2.2,1.2,4.4,1.9,6.6c1.3,4.6,1.6,5.1,6.1,9.2c4.7,4.3,9.4,8.7,14,13c-0.7-0.1-1.5,0-2.2,0.2
			c-1.5,0.4-3,0.8-4.5,1.2c-3.4,0.9-5.5,4.3-4.6,7.4c0.4,1.5,0.8,2.9,1.2,4.4c0.7,2.3,1.8,4.4,3.2,6.2c-0.5,1.2-0.7,2.5-0.3,3.8
			c0.4,1.5,0.8,2.9,1.2,4.4c2.9,10.2,13.8,16.1,24.4,13.4c10.5-2.7,17.2-13.1,14.9-23.4c-0.5-2.2-1-4.4-1.5-6.6
			c-0.5-2.1-0.8-3.3-1.4-4.4c0-1.2-0.2-2.4-0.4-3.6c-0.5-2.2-1-4.4-1.5-6.6c-1-4.5-1.3-5-5.6-9.4c-4.6-4.6-9.2-9.2-13.9-13.7
			c0.8,0.1,1.6,0,2.5-0.2c1.6-0.4,3.1-0.8,4.7-1.1c3.6-0.8,5.8-4,5.1-7.3c-0.3-1.5-0.7-3-1-4.5c-0.5-2.3-1.5-4.4-2.9-6.3
			c0.6-1.2,0.9-2.5,0.6-3.9c-0.3-1.5-0.7-3-1-4.5C227.8,116.3,216,110,203.8,113.1z M224.5,191.8c-0.2,0.1-0.4,0.1-0.5,0.2
			c-1.8,0.5-3.6-0.6-4.1-2.3c-0.3-1.1-0.5-2.1-0.8-3.2C220.8,188.2,222.7,190,224.5,191.8z"/>
		<path class="st1" d="M276.6,97.8c-4.6,0.8-8.9,2.8-12.3,5.9c-4.2-1.6-8.9-2.1-13.5-1.1c-12.3,2.4-20.4,13.2-18,23.7
			c1.1,4.9,2.2,9.8,3.3,14.6c4.2,18.5,8.3,37.1,12.5,55.6c1.1,4.9,2.2,9.8,3.3,14.6c0.7,3.1,4,5.2,7.2,4.5c1.4-0.3,2.9-0.6,4.3-0.9
			c3.3-0.7,5.4-3.8,4.8-7c-1-4.9-2-9.8-3-14.7c-3.8-18.6-7.5-37.2-11.3-55.9c-0.4-1.8,0.9-3.5,3-3.9c1.9-0.4,3.8,0.8,4.1,2.5
			c3.6,18.7,7.2,37.3,10.8,56c1,4.9,1.9,9.8,2.9,14.7c0.6,3.3,3.7,5.3,7.1,4.7c1.4-0.3,2.9-0.5,4.3-0.8c3.3-0.6,5.5-3.6,5-6.9
			c-0.8-4.9-1.7-9.9-2.5-14.8c-3.2-18.7-6.4-37.5-9.6-56.2c-0.3-1.8,1-3.5,2.9-3.8c2.1-0.3,3.9,0.8,4.2,2.6
			c3.1,18.8,6.1,37.5,9.2,56.3c0.8,4.9,1.6,9.9,2.4,14.8c0.5,3.3,3.6,5.4,6.9,4.9c1.5-0.2,2.9-0.4,4.4-0.7c3.2-0.5,5.6-3.5,5.1-6.7
			c-0.7-5-1.4-9.9-2.1-14.9c-2.7-18.8-5.3-37.6-8-56.4c-0.7-5-1.4-9.9-2.1-14.9C300.3,103,289,95.7,276.6,97.8z"/>
		<path class="st1" d="M325.8,91c-12.5,1.4-21.4,11.4-19.9,22c0.7,5,1.4,9.9,2,14.9c2.6,18.8,5.1,37.7,7.7,56.5
			c0.7,5,1.4,9.9,2,14.9c0.4,3.2,3.5,5.5,6.8,5.1c1.5-0.2,2.9-0.4,4.4-0.5c3.4-0.4,5.7-3.3,5.3-6.6c-0.6-5-1.1-9.9-1.7-14.9
			c-0.8-6.5-1.5-13.1-2.3-19.6c2.3-0.3,4.6-0.5,6.8-0.8c0.7,6.5,1.4,13.1,2.1,19.6c0.5,5,1.1,10,1.6,14.9c0.4,3.3,3.3,5.6,6.6,5.3
			c1.5-0.1,2.9-0.3,4.4-0.4c3.4-0.3,5.8-3.1,5.5-6.4c-0.4-5-0.8-10-1.3-15c-1.6-18.9-3.2-37.9-4.8-56.8c-0.4-5-0.8-10-1.3-15
			C349,97.5,338.2,89.6,325.8,91z M326.7,131.7c-0.2-2-0.5-4-0.7-6.1c-0.2-1.9,1.2-3.4,3.3-3.7c1.9-0.2,3.7,1.1,3.9,2.9
			c0.2,2,0.4,4,0.6,6.1C331.4,131.1,329,131.4,326.7,131.7z"/>
		<path class="st1" d="M373.4,87c-12.4,0.7-21.8,10.2-20.9,20.8c0.2,2.3,0.4,4.6,0.6,6.9c0.2,2.1,0.3,3.4,0.7,4.6
			c-0.1,1.1-0.2,2.3-0.1,3.5c0.2,2.3,0.4,4.6,0.6,6.9c0.4,4.7,0.6,5.3,4.2,10.2c3.8,5.1,7.5,10.3,11.2,15.5
			c-0.7-0.2-1.4-0.3-2.2-0.2c-1.5,0.1-3.1,0.2-4.6,0.3c-3.4,0.3-6.1,3.2-5.9,6.4c0.1,1.5,0.2,3.1,0.4,4.6c0.2,2.4,0.9,4.7,1.9,6.7
			c-0.7,1.1-1.2,2.3-1,3.7c0.1,1.5,0.2,3.1,0.4,4.6c0.9,10.6,10.4,18.5,21.2,17.9c10.8-0.6,19.3-9.5,19-20.1
			c-0.1-2.3-0.1-4.5-0.2-6.8c-0.1-2.1-0.1-3.4-0.5-4.6c0.2-1.2,0.3-2.4,0.3-3.6c-0.1-2.3-0.1-4.5-0.2-6.8c-0.1-4.6-0.3-5.2-3.6-10.2
			c-3.6-5.4-7.2-10.8-11-16.1c0.8,0.2,1.6,0.3,2.5,0.3c1.6-0.1,3.2-0.1,4.8-0.2c3.7-0.1,6.5-2.8,6.4-6.1c0-1.5-0.1-3.1-0.1-4.6
			c-0.1-2.4-0.7-4.6-1.6-6.7c0.8-1,1.3-2.3,1.3-3.7c0-1.5-0.1-3.1-0.1-4.6C396.2,94.7,385.8,86.3,373.4,87z M378.5,168.1
			c-0.2,0-0.4,0.1-0.6,0.1c-1.8,0.1-3.4-1.3-3.5-3.1c-0.1-1.1-0.1-2.2-0.2-3.3C375.7,164,377.1,166,378.5,168.1z"/>
		<path class="st1" d="M436.7,85.7c-1.6,0-3.3,0-4.9-0.1c-3.7,0-6.9,2.7-6.9,5.9c0,5,0,10,0,15c0,6.6,0,13.2,0,19.7
			c-2.4,0-4.8,0-7.1,0c0-6.6-0.1-13.2-0.1-19.7c0-5-0.1-10-0.1-15c0-3.2-3.2-5.9-6.9-5.8c-1.7,0-3.4,0.1-5,0.1
			c-3.8,0.1-6.8,2.9-6.7,6.2c0.1,5,0.3,10,0.4,15c0.7,23.4,1.3,46.9,2,70.3c0.1,5,0.3,10,0.4,15c0.1,3.3,2.8,5.8,6.2,5.8
			c1.5,0,2.9-0.1,4.4-0.1c3.4,0,6-2.7,6-6c0-5-0.1-10-0.1-15c0-6.5-0.1-13.1-0.1-19.6c2.3,0,4.6,0,6.9,0c0,6.5,0,13.1,0,19.6
			c0,5,0,10,0,15c0,3.3,2.6,5.9,6,5.9c1.4,0,2.8,0,4.3,0.1c3.4,0.1,6.1-2.5,6.2-5.8c0.1-5,0.2-10,0.3-15c0.5-23.5,1.1-47,1.6-70.5
			c0.1-5,0.2-10,0.3-15C443.5,88.5,440.4,85.8,436.7,85.7z"/>
		<path class="st1" d="M470.5,86.8c-4.4-0.2-8.8-0.4-13.2-0.6c-5.1-0.2-9.5,3.4-9.6,7.8c-0.1,5-0.3,10-0.4,15
			c-0.6,22.1-1.2,44.1-1.8,66.2c-0.1,5-0.3,10-0.4,15c-0.1,4.5,3.5,8.2,8,8.3c3.8,0.1,7.7,0.3,11.5,0.5c10.8,0.6,20.2-7.3,21.1-17.9
			c0.4-5,0.8-10,1.2-15c1.1-14.5,2.3-29,3.4-43.5c0.4-5,0.8-10,1.2-15C492.3,97,482.9,87.5,470.5,86.8z M466.2,167.9
			c-1.2-0.1-2.3-0.1-3.5-0.2c0.8-16.7,1.6-33.3,2.4-50c1.2,0.1,2.4,0.1,3.7,0.2c1.9,0.1,3.4,1.7,3.3,3.5c-0.8,14.5-1.7,29-2.5,43.6
			C469.6,166.7,468,168,466.2,167.9z"/>
		<path class="st1" d="M519.8,90.8c-12.5-1.4-23.3,6.5-24.2,17.2c-0.4,5-0.8,10-1.2,15c-1.2,14.5-2.4,29-3.6,43.5
			c-0.4,5-0.8,10-1.2,15c-0.8,10.6,7.3,19.9,18.1,21.1c10.7,1.2,20.6-6.2,22.1-16.7c0.7-5,1.3-9.9,2-14.9
			c1.9-14.4,3.9-28.8,5.8-43.2c0.7-5,1.3-9.9,2-14.9C541,102.2,532.2,92.2,519.8,90.8z M511,171.5c-1.9-0.2-3.3-1.8-3.1-3.5
			c1.5-14.5,3-28.9,4.5-43.4c0.2-1.9,1.9-3.1,4-2.9c1.9,0.2,3.3,1.8,3.1,3.6c-1.6,14.4-3.3,28.9-4.9,43.3
			C514.5,170.5,512.8,171.7,511,171.5z"/>
		<path class="st1" d="M610,105.5c-1.7-0.4-3.3-0.7-5-1c-3.7-0.8-7.3,1.3-7.9,4.4c-1,4.9-2,9.8-2.9,14.7c-3.3,16.3-6.5,32.7-9.8,49
			c-0.1,0.3-0.1,0.5-0.3,0.8c-1.4,1.5-2.8,3-4.2,4.6c-0.7-2-1.5-4.1-2.2-6.1c0-0.2,0-0.3,0-0.6c3.1-16.4,6.3-32.7,9.4-49.1
			c0.9-4.9,1.9-9.8,2.8-14.7c0.6-3.3-1.9-6.4-5.7-7.1c-1.7-0.3-3.3-0.6-5-0.9c-3.8-0.7-7.3,1.4-7.8,4.6c-0.8,4.9-1.7,9.9-2.5,14.8
			c-2.8,16.4-5.6,32.8-8.4,49.3c0,0.3-0.1,0.4-0.2,0.6c-1.4,1.6-2.9,3.3-4.3,4.9c-0.8-2-1.6-4-2.4-6c0-0.2,0-0.4,0-0.6
			c2.6-16.4,5.3-32.9,7.9-49.3c0.8-4.9,1.6-9.9,2.4-14.8c0.5-3.3-2.1-6.3-5.9-6.9c-1.7-0.3-3.3-0.5-5-0.7c-3.8-0.6-7.2,1.6-7.7,4.9
			c-0.7,5-1.4,9.9-2.1,14.9c-2.3,16.5-4.6,33-6.9,49.5c-0.7,5-1.4,9.9-2.1,14.9c-0.5,3.8,0.1,7.6,1.9,11c1.9,4.5,3.7,9,5.5,13.6
			c0.6,2,2.5,3.6,4.8,3.9c2.5,0.4,5,0.8,7.5,1.2c2.1,0.4,4.2-0.4,5.7-2c1-1.2,2.1-2.4,3.1-3.6c0.5,1.5,1.1,3,1.6,4.6
			c0.8,2,2.5,3.4,4.6,3.8c2.5,0.5,5.1,1,7.6,1.5c2.1,0.4,4.3-0.3,5.8-1.9c3.3-3.6,6.6-7.3,9.9-10.9c2.8-2.7,4.7-6.1,5.5-9.7
			c1.1-4.9,2.2-9.8,3.3-14.7c3.6-16.3,7.2-32.5,10.8-48.8c1.1-4.9,2.2-9.8,3.3-14.7C616.2,109.5,613.8,106.3,610,105.5z"/>
		<path class="st5" d="M644.7,107.3c-8.1-2.1-16.1-1-22.4,2.3c-1-4.7-5.2-8.8-11.1-10c-1.7-0.4-3.3-0.7-5-1.1
			c-4.2-0.9-8.2,0-11.2,1.9c-2-3-5.5-5.3-9.7-6c-1.7-0.3-3.3-0.6-5-0.9c-4.3-0.8-8.3,0.2-11.3,2.3c-2.1-2.9-5.6-5.1-9.9-5.8
			c-1.7-0.3-3.3-0.5-5-0.8c-5.9-0.9-11.2,1.4-13.8,5.5c-4.7-5.3-11.7-9-19.9-9.9c-10.4-1.1-20,2.6-25.8,9.1
			c-4.6-7.3-13.5-12.6-23.8-13.1c-4.4-0.2-8.9-0.4-13.3-0.6c-4.1-0.2-7.9,1.1-10.9,3.2c-2.5-2.3-6-3.7-9.9-3.8c-1.6,0-3.3,0-4.9-0.1
			c-4.3,0-8.1,1.6-10.7,4.2c-2.6-2.6-6.4-4.2-10.7-4.2c-1.7,0-3.4,0.1-5.1,0.1c-5.4,0.1-10,2.9-12.2,6.9c-5.4-3.9-12.4-6.1-20.1-5.7
			c-9.9,0.6-18.3,5.4-23.1,12.2c-5.8-5.9-14.9-9.3-24.8-8.2c-10.4,1.1-19,6.9-23.2,14.5c-6.2-6.2-16-9.4-26.3-7.7
			c-4.6,0.8-8.8,2.4-12.5,4.9c-4.3-1-8.9-1-13.5-0.1c-9.8,1.9-17.6,7.9-21.4,15.3c-6.6-5-16.2-7.1-25.9-4.6
			c-16.1,4.1-25.8,18.8-21.8,32.2c0.6,2.2,1.3,4.4,1.9,6.6c0.5,1.7,0.9,3.1,1.6,4.5c0.1,1.2,0.4,2.3,0.7,3.3
			c0.6,2.2,1.3,4.4,1.9,6.6c1.7,5.8,2.8,7.2,7.8,11.8c2.2,2,4.4,4,6.6,6c-4.5,2.9-6.8,8.2-5.4,13.3c0.4,1.5,0.9,2.9,1.3,4.4
			c0.6,2,1.4,3.9,2.5,5.7c-0.2,1.4,0,2.9,0.4,4.3c0.4,1.5,0.9,2.9,1.3,4.4c4,13.4,18.2,21,31.9,17.5c6.4-1.6,11.7-5.5,15.3-10.5
			c2.8,3.3,7.4,5,12,4c1.4-0.3,2.9-0.6,4.3-0.9c3.7-0.8,6.6-3,8.3-5.9c2.7,2.1,6.2,3,9.9,2.3c1.4-0.3,2.9-0.5,4.3-0.8
			c3.7-0.7,6.7-2.8,8.4-5.7c2.6,2.2,6.1,3.2,9.8,2.6c1.4-0.2,2.9-0.4,4.3-0.7c3-0.4,5.5-1.9,7.4-4c2.3,1.5,5.2,2.2,8.2,1.8
			c1.4-0.2,2.9-0.4,4.3-0.5c3.7-0.5,6.8-2.4,8.7-5.2c2.5,2.3,5.9,3.5,9.6,3.2c1.5-0.1,2.9-0.3,4.4-0.4c4.8-0.4,8.6-3.4,10.2-7.4
			c4.9,3.7,11,5.7,17.6,5.4c6.6-0.4,12.4-3.1,16.8-7.3c2.1,3.8,6.2,6.3,11,6.2c1.5,0,2.9-0.1,4.4-0.1c3.7-0.1,7-1.7,9.2-4.2
			c2.2,2.6,5.5,4.2,9.2,4.2c1.4,0,2.8,0,4.2,0.1c3.4,0,6.4-1.2,8.7-3.3c2.5,2.2,5.7,3.6,9.2,3.8c3.8,0.1,7.6,0.3,11.5,0.5
			c8.9,0.5,17.1-3.5,22.3-10c4.1,7.2,11.6,12.5,20.5,13.5c10.3,1.1,20-3.8,25.3-12.1c1.3,3.1,2.6,6.3,3.8,9.4
			c1.4,4.1,5.2,7.1,9.6,7.9c2.5,0.4,5,0.8,7.4,1.2c2.8,0.5,5.5,0,7.9-1.3c1.8,2,4.2,3.5,7,4c2.5,0.5,5,1,7.5,1.5
			c4.2,0.9,8.5-0.5,11.6-3.7c1.3-1.5,2.6-2.9,4-4.3c-0.9,6.2,3.1,12,9.4,13.5c1.4,0.3,2.8,0.7,4.3,1c3.7,0.9,7.2,0.1,10-1.8
			c1.5,3,4.3,5.4,8,6.4c1.4,0.4,2.8,0.8,4.3,1.2c6.6,1.8,13.1-1.7,15-8.1c8.1-27.9,16.2-55.7,24.3-83.6
			C670.4,126.2,660.7,111.4,644.7,107.3z"/>
	</g>
	<path class="st6" d="M378.1,114.9c-8.7,0.5-7.9,12.5,0.6,12C387.3,126.5,386.8,114.5,378.1,114.9z"/>
	<path class="st6" d="M212.5,140c-8.5,2.2-5.4,13.8,2.9,11.6C223.8,149.5,221,137.9,212.5,140z"/>
	<g>
		<path class="st6" d="M207.5,127.7c-11.9,3-19.2,14.1-16.3,24.3c0.6,2.2,1.2,4.4,1.9,6.6c1.3,4.6,1.6,5.1,6.1,9.2
			c9.9,9.1,19.6,18.3,29,27.7c0,0.1,0.1,0.3,0.1,0.4c0.5,2.2,1.1,4.4,1.6,6.6c0.4,1.8-0.6,3.5-2.4,4c-1.8,0.4-3.5-0.6-4-2.4
			c-0.4-1.5-0.8-3-1.2-4.4c-0.8-3.1-4.3-5-7.6-4.1c-1.5,0.4-3,0.8-4.5,1.2c-3.3,0.9-5.3,4.3-4.5,7.4c0.4,1.5,0.8,2.9,1.2,4.4
			c2.9,10.2,13.8,16.1,24.4,13.4c10.5-2.7,17.2-13.1,14.9-23.4c-0.5-2.2-1-4.4-1.5-6.6c-1-4.5-1.3-5-5.5-9.4
			c-9.3-9.5-18.9-18.9-28.8-28.1c0-0.2-0.1-0.4-0.1-0.6c-0.6-2.2-1.2-4.4-1.7-6.7c-0.4-1.7,0.8-3.4,2.7-3.9c1.9-0.5,3.8,0.5,4.2,2.2
			c0.4,1.5,0.7,3,1.1,4.5c0.8,3.2,4.2,5,7.8,4.2c1.6-0.4,3.1-0.8,4.7-1.1c3.6-0.8,5.8-4,5.1-7.3c-0.3-1.5-0.7-3-1-4.5
			C231.1,130.9,219.5,124.6,207.5,127.7z"/>
		<path class="st6" d="M279.1,112.6c-4.5,0.8-8.8,2.8-12,5.8c-4.1-1.7-8.8-2.1-13.3-1.2c-12.1,2.4-20,13.1-17.6,23.6
			c5.3,23.4,10.5,46.8,15.8,70.3c0.7,3.1,4,5.2,7.2,4.5c1.4-0.3,2.9-0.6,4.3-0.9c3.3-0.7,5.4-3.8,4.8-7
			c-4.8-23.5-9.5-47.1-14.3-70.6c-0.4-1.8,0.9-3.5,3-3.9c1.9-0.4,3.8,0.8,4.1,2.5c4.6,23.6,9.1,47.1,13.7,70.7
			c0.6,3.3,3.7,5.3,7.1,4.7c1.4-0.3,2.9-0.5,4.3-0.8c3.3-0.6,5.5-3.6,5-6.9c-4.1-23.7-8.1-47.3-12.2-71c-0.3-1.8,1-3.5,2.9-3.8
			c2.1-0.3,3.9,0.8,4.2,2.6c3.9,23.7,7.7,47.4,11.6,71.1c0.5,3.3,3.6,5.4,6.9,4.9c1.5-0.2,2.9-0.4,4.4-0.7c3.2-0.5,5.6-3.5,5.1-6.7
			c-3.4-23.8-6.7-47.5-10.1-71.3C302.4,117.8,291.3,110.6,279.1,112.6z"/>
		<path class="st6" d="M327.5,105.9c-12.3,1.3-21,11.4-19.5,22c3.2,23.8,6.5,47.6,9.7,71.3c0.4,3.2,3.5,5.5,6.8,5.1
			c1.5-0.2,2.9-0.4,4.4-0.5c3.4-0.4,5.7-3.3,5.3-6.6c-1.3-11.5-2.6-23-4-34.5c2.3-0.3,4.6-0.5,6.8-0.8c1.2,11.5,2.4,23,3.7,34.6
			c0.4,3.3,3.3,5.6,6.6,5.3c1.5-0.1,2.9-0.3,4.4-0.4c3.4-0.3,5.8-3.1,5.5-6.4c-2-23.9-4.1-47.8-6.1-71.7
			C350.3,112.4,339.7,104.6,327.5,105.9z M333.1,124.8c0.7,7,1.5,14,2.2,21c-2.3,0.2-4.6,0.5-7,0.8c-0.8-7-1.6-14-2.4-21
			c-0.2-1.9,1.2-3.4,3.3-3.7C331.2,121.7,332.9,123,333.1,124.8z"/>
		<path class="st6" d="M374.2,102c-12.2,0.7-21.4,10.2-20.5,20.7c0.2,2.3,0.4,4.6,0.6,6.9c0.4,4.7,0.6,5.3,4.2,10.2
			c8,10.8,15.6,21.7,23,32.7c0,0.1,0,0.3,0,0.5c0.1,2.2,0.2,4.5,0.4,6.7c0.1,1.8-1.3,3.3-3.1,3.4c-1.8,0.1-3.3-1.3-3.5-3.1
			c-0.1-1.5-0.2-3.1-0.3-4.6c-0.2-3.2-3.2-5.7-6.6-5.5c-1.5,0.1-3,0.2-4.6,0.3c-3.4,0.2-6,3.2-5.8,6.4c0.1,1.5,0.2,3.1,0.4,4.6
			c0.9,10.6,10.4,18.5,21.2,17.9c10.8-0.6,19.3-9.5,19-20.1c-0.1-2.3-0.1-4.5-0.2-6.8c-0.1-4.6-0.3-5.2-3.6-10.2
			c-7.3-11.1-14.8-22.2-22.7-33.1c0-0.2,0-0.4,0-0.6c-0.1-2.3-0.3-4.6-0.4-6.9c-0.1-1.7,1.4-3.2,3.3-3.3c1.9-0.1,3.6,1.2,3.7,2.9
			c0.1,1.5,0.2,3.1,0.2,4.6c0.2,3.3,3.2,5.8,6.8,5.6c1.6-0.1,3.2-0.1,4.8-0.2c3.7-0.1,6.5-2.8,6.4-6.1c0-1.5-0.1-3.1-0.1-4.6
			C396.6,109.7,386.5,101.3,374.2,102z"/>
		<path class="st6" d="M436.4,100.7c-1.6,0-3.2,0-4.8-0.1c-3.7,0-6.8,2.7-6.8,5.9c0,11.6,0,23.2-0.1,34.7c-2.3,0-4.7,0-7,0
			c-0.1-11.6-0.2-23.2-0.2-34.7c0-3.2-3.1-5.9-6.8-5.8c-1.6,0-3.3,0.1-4.9,0.1c-3.7,0.1-6.7,2.9-6.6,6.2c0.8,28.4,1.6,56.9,2.4,85.3
			c0.1,3.3,2.8,5.8,6.2,5.8c1.5,0,2.9-0.1,4.4-0.1c3.4,0,6-2.7,6-6c-0.1-11.5-0.2-23.1-0.2-34.6c2.3,0,4.6,0,6.9,0
			c0,11.5,0,23.1-0.1,34.6c0,3.3,2.6,5.9,6,5.9c1.4,0,2.8,0,4.3,0.1c3.4,0.1,6.1-2.5,6.2-5.8c0.6-28.5,1.3-57,1.9-85.5
			C443.2,103.5,440.1,100.8,436.4,100.7z"/>
		<path class="st6" d="M469.7,101.8c-4.3-0.2-8.7-0.4-13-0.6c-5-0.2-9.4,3.4-9.5,7.8c-0.7,27.1-1.5,54.1-2.2,81.2
			c-0.1,4.5,3.5,8.2,8,8.3c3.8,0.1,7.7,0.3,11.5,0.5c10.8,0.6,20.2-7.3,21.1-17.9c1.5-19.5,3-39,4.6-58.5
			C491.1,112,481.9,102.5,469.7,101.8z M472.2,121.4c-1.1,19.5-2.2,39-3.3,58.5c-0.1,1.7-1.6,3-3.4,3c-1.1-0.1-2.3-0.1-3.4-0.2
			c1.1-21.7,2.1-43.3,3.2-65c1.2,0.1,2.4,0.1,3.7,0.2C470.8,118.1,472.3,119.6,472.2,121.4z"/>
		<path class="st6" d="M518.2,105.8c-12.3-1.3-22.9,6.6-23.8,17.2c-1.6,19.5-3.2,39-4.9,58.4c-0.8,10.6,7.3,19.9,18.1,21.1
			c10.7,1.2,20.6-6.2,22.1-16.7c2.6-19.4,5.2-38.7,7.8-58.1C539,117.1,530.3,107.1,518.2,105.8z M519.6,125.4
			c-2.2,19.4-4.4,38.8-6.6,58.3c-0.2,1.7-1.8,3-3.6,2.8c-1.9-0.2-3.2-1.8-3.1-3.5c2-19.4,4.1-38.9,6.1-58.3c0.2-1.9,1.9-3.1,4-2.9
			C518.4,122,519.8,123.7,519.6,125.4z"/>
		<path class="st6" d="M606.8,120.2c-1.6-0.3-3.2-0.7-4.9-1c-3.6-0.8-7.2,1.3-7.8,4.4c-4.3,21.2-8.5,42.5-12.8,63.7
			c-0.1,0.3-0.1,0.5-0.3,0.8c-1.4,1.5-2.8,3-4.1,4.6c-0.7-2-1.4-4-2.1-6.1c0-0.2,0-0.3,0-0.6c4.1-21.3,8.2-42.5,12.2-63.8
			c0.6-3.3-1.8-6.4-5.6-7.1c-1.6-0.3-3.3-0.6-4.9-0.9c-3.8-0.7-7.1,1.4-7.7,4.7c-3.6,21.4-7.2,42.7-10.9,64.1c0,0.3-0.1,0.4-0.2,0.6
			c-1.4,1.6-2.8,3.3-4.2,4.9c-0.8-2-1.5-4-2.3-6c0-0.2,0-0.4,0-0.6c3.4-21.4,6.9-42.8,10.3-64.2c0.5-3.3-2-6.3-5.8-6.9
			c-1.6-0.3-3.3-0.5-4.9-0.7c-3.8-0.6-7.1,1.6-7.5,4.9c-3,21.5-6,42.9-9,64.4c-0.5,3.8,0.1,7.6,1.9,11c1.9,4.5,3.7,9,5.5,13.6
			c0.6,2,2.5,3.6,4.8,3.9c2.5,0.4,5,0.8,7.5,1.2c2.1,0.4,4.2-0.4,5.7-2c1-1.2,2.1-2.4,3.1-3.6c0.5,1.5,1.1,3,1.6,4.6
			c0.8,2,2.5,3.4,4.6,3.8c2.5,0.5,5.1,1,7.6,1.5c2.1,0.4,4.3-0.3,5.8-1.9c3.3-3.6,6.6-7.3,9.9-10.9c2.8-2.7,4.7-6.1,5.5-9.7
			c4.7-21.1,9.4-42.3,14.1-63.4C612.9,124.2,610.6,121,606.8,120.2z"/>
		<path class="st6" d="M639.5,127.7c-12-3.1-23.8,3.2-26.1,13.7c-5.3,23.4-10.7,46.8-16,70.2c-0.7,3.2,1.3,6.4,4.6,7.1
			c1.4,0.3,2.9,0.7,4.3,1c3.3,0.8,6.5-1.1,7.3-4.3c5.8-23.3,11.6-46.6,17.5-69.9c0.5-1.8,2.3-2.8,4.4-2.3c1.9,0.5,3.1,2.3,2.6,4.1
			c-6,23.2-12,46.5-18.1,69.7c-0.8,3.2,1.1,6.4,4.4,7.3c1.4,0.4,2.9,0.8,4.3,1.2c3.3,0.9,6.6-0.9,7.5-4.1
			c6.5-23.1,13-46.2,19.5-69.3C658.7,141.9,651.4,130.7,639.5,127.7z"/>
	</g>
	<g>
		<path class="st1" d="M203.8,113.1c-12.1,3.1-19.6,14.2-16.7,24.4c0.6,2.2,1.2,4.4,1.9,6.6c1.3,4.6,1.6,5.1,6.2,9.2
			c10.1,9,19.9,18.2,29.4,27.6c0,0.1,0.1,0.3,0.1,0.4c0.5,2.2,1.1,4.4,1.6,6.6c0.4,1.8-0.7,3.5-2.4,4c-1.8,0.5-3.6-0.6-4.1-2.3
			c-0.4-1.5-0.8-3-1.2-4.4c-0.8-3.1-4.3-5-7.7-4.1c-1.5,0.4-3,0.8-4.5,1.2c-3.4,0.9-5.5,4.3-4.6,7.4c0.4,1.5,0.8,2.9,1.2,4.4
			c2.9,10.2,14,16.1,24.7,13.3c10.7-2.7,17.6-13.1,15.3-23.5c-0.5-2.2-1-4.4-1.5-6.6c-1-4.5-1.3-5-5.6-9.4
			c-9.4-9.5-19.2-18.8-29.1-28c0-0.2-0.1-0.4-0.1-0.6c-0.6-2.2-1.2-4.4-1.7-6.7c-0.4-1.7,0.8-3.4,2.7-3.9c1.9-0.5,3.8,0.5,4.3,2.2
			c0.4,1.5,0.7,3,1.1,4.5c0.8,3.2,4.3,5,8,4.1c1.6-0.4,3.2-0.8,4.8-1.1c3.7-0.9,5.9-4,5.2-7.3c-0.3-1.5-0.7-3-1-4.5
			C227.8,116.3,216,110,203.8,113.1z"/>
		<path class="st1" d="M276.6,97.8c-4.6,0.8-8.9,2.8-12.3,5.9c-4.2-1.6-8.9-2.1-13.5-1.1c-12.3,2.4-20.4,13.2-18,23.7
			c5.3,23.4,10.5,46.8,15.8,70.3c0.7,3.1,4.1,5.1,7.3,4.4c1.5-0.3,2.9-0.6,4.4-0.9c3.4-0.7,5.5-3.8,4.9-7
			c-4.8-23.5-9.5-47.1-14.3-70.6c-0.4-1.8,0.9-3.5,3-3.9c2-0.4,3.8,0.7,4.2,2.5c4.6,23.6,9.1,47.1,13.7,70.7
			c0.6,3.3,3.8,5.3,7.2,4.7c1.5-0.3,3-0.5,4.4-0.8c3.4-0.6,5.6-3.6,5.1-6.9c-4.1-23.7-8.1-47.3-12.2-71c-0.3-1.8,1-3.5,3-3.8
			c2.1-0.4,3.9,0.8,4.2,2.6c3.9,23.7,7.7,47.4,11.6,71.1c0.5,3.3,3.6,5.4,7,4.9c1.5-0.2,3-0.5,4.4-0.7c3.3-0.5,5.7-3.6,5.3-6.7
			c-3.4-23.8-6.7-47.5-10.1-71.3C300.3,103,289,95.7,276.6,97.8z"/>
		<path class="st1" d="M325.8,91c-12.5,1.4-21.4,11.4-19.9,22c3.2,23.8,6.5,47.6,9.7,71.3c0.4,3.2,3.6,5.5,6.9,5.1
			c1.5-0.2,3-0.4,4.5-0.6c3.4-0.4,5.8-3.3,5.4-6.6c-1.3-11.5-2.6-23-4-34.5c2.3-0.3,4.6-0.5,7-0.8c1.2,11.5,2.4,23,3.7,34.6
			c0.4,3.3,3.3,5.6,6.7,5.3c1.5-0.1,3-0.3,4.5-0.4c3.4-0.3,5.9-3.1,5.6-6.4c-2-23.9-4.1-47.8-6.1-71.7C349,97.5,338.2,89.6,325.8,91
			z M331.5,109.9c0.7,7,1.5,14,2.2,21c-2.4,0.3-4.7,0.5-7.1,0.8c-0.8-7-1.6-14-2.4-21c-0.2-1.9,1.2-3.4,3.4-3.7
			C329.6,106.8,331.3,108.1,331.5,109.9z"/>
		<path class="st1" d="M373.4,87c-12.4,0.7-21.8,10.2-20.9,20.8c0.2,2.3,0.4,4.6,0.6,6.9c0.4,4.7,0.6,5.3,4.3,10.2
			c8.1,10.8,15.9,21.7,23.4,32.7c0,0.1,0,0.3,0,0.5c0.1,2.2,0.2,4.5,0.4,6.7c0.1,1.8-1.3,3.3-3.1,3.4c-1.8,0.1-3.4-1.3-3.5-3.1
			c-0.1-1.5-0.2-3.1-0.3-4.6c-0.2-3.2-3.3-5.7-6.7-5.5c-1.5,0.1-3.1,0.2-4.6,0.3c-3.4,0.3-6.1,3.2-5.9,6.4c0.1,1.5,0.2,3.1,0.4,4.6
			c0.9,10.6,10.6,18.5,21.6,17.8c11-0.6,19.7-9.5,19.4-20.2c-0.1-2.3-0.1-4.5-0.2-6.8c-0.1-4.6-0.3-5.2-3.6-10.2
			c-7.4-11.1-15.1-22.2-23.1-33.1c0-0.2,0-0.4,0-0.6c-0.1-2.3-0.3-4.6-0.4-6.9c-0.1-1.7,1.4-3.2,3.4-3.3c2-0.1,3.7,1.2,3.7,2.9
			c0.1,1.5,0.2,3.1,0.2,4.6c0.2,3.3,3.2,5.7,7,5.6c1.6-0.1,3.2-0.1,4.9-0.2c3.7-0.1,6.6-2.8,6.5-6.1c0-1.5-0.1-3.1-0.1-4.6
			C396.2,94.7,385.8,86.3,373.4,87z"/>
		<path class="st1" d="M436.7,85.7c-1.6,0-3.3,0-4.9-0.1c-3.7,0-6.9,2.7-6.9,5.9c0,11.6,0,23.2-0.1,34.7c-2.4,0-4.8,0-7.1,0
			c-0.1-11.6-0.2-23.2-0.2-34.7c0-3.2-3.2-5.9-6.9-5.8c-1.7,0-3.4,0.1-5,0.1c-3.8,0.1-6.8,2.9-6.7,6.2c0.8,28.4,1.6,56.9,2.4,85.3
			c0.1,3.3,2.9,5.8,6.3,5.8c1.5,0,3-0.1,4.5-0.1c3.4,0,6.1-2.7,6.1-6c-0.1-11.5-0.2-23.1-0.2-34.6c2.3,0,4.7,0,7,0
			c0,11.5,0,23.1-0.1,34.6c0,3.3,2.7,5.9,6.1,5.9c1.4,0,2.9,0,4.3,0.1c3.4,0.1,6.2-2.5,6.3-5.8c0.6-28.5,1.3-57,1.9-85.5
			C443.5,88.5,440.4,85.8,436.7,85.7z"/>
		<path class="st1" d="M470.5,86.8c-4.4-0.2-8.8-0.4-13.2-0.6c-5.1-0.2-9.5,3.4-9.6,7.8c-0.7,27.1-1.5,54.1-2.2,81.2
			c-0.1,4.5,3.5,8.2,8.2,8.3c3.9,0.1,7.8,0.3,11.8,0.5c11,0.6,20.6-7.3,21.5-17.9c1.5-19.5,3-39,4.6-58.5
			C492.3,97,482.9,87.5,470.5,86.8z M473,106.4c-1.1,19.5-2.2,39-3.3,58.5c-0.1,1.7-1.7,3-3.5,2.9c-1.2-0.1-2.3-0.1-3.5-0.2
			c1.1-21.7,2.1-43.3,3.2-65c1.2,0.1,2.5,0.1,3.7,0.2C471.6,103.1,473.1,104.6,473,106.4z"/>
		<path class="st1" d="M519.8,90.8c-12.5-1.4-23.3,6.5-24.2,17.2c-1.6,19.5-3.2,39-4.9,58.4c-0.8,10.6,7.5,19.9,18.5,21.1
			c10.9,1.2,21-6.2,22.5-16.7c2.6-19.4,5.2-38.7,7.8-58.1C541,102.2,532.2,92.2,519.8,90.8z M521.2,110.5
			c-2.2,19.4-4.4,38.8-6.6,58.3c-0.2,1.7-1.8,2.9-3.7,2.8c-1.9-0.2-3.3-1.8-3.1-3.5c2-19.4,4.1-38.9,6.1-58.3
			c0.2-1.9,1.9-3.1,4.1-2.9C520,107.1,521.4,108.7,521.2,110.5z"/>
		<path class="st1" d="M610,105.5c-1.7-0.4-3.3-0.7-5-1c-3.7-0.8-7.3,1.3-7.9,4.4c-4.3,21.2-8.5,42.5-12.8,63.7
			c-0.1,0.3-0.1,0.5-0.3,0.8c-1.4,1.5-2.8,3-4.2,4.6c-0.7-2-1.5-4.1-2.2-6.1c0-0.2,0-0.3,0-0.6c4.1-21.3,8.2-42.5,12.2-63.8
			c0.6-3.3-1.9-6.4-5.7-7.1c-1.7-0.3-3.3-0.6-5-0.9c-3.8-0.7-7.3,1.4-7.8,4.6c-3.6,21.4-7.2,42.7-10.9,64.1c0,0.3-0.1,0.4-0.2,0.6
			c-1.4,1.6-2.9,3.3-4.3,4.9c-0.8-2-1.6-4-2.4-6c0-0.2,0-0.4,0-0.6c3.4-21.4,6.9-42.8,10.3-64.2c0.5-3.3-2.1-6.3-5.9-6.9
			c-1.7-0.3-3.3-0.5-5-0.7c-3.8-0.6-7.2,1.6-7.7,4.9c-3,21.5-6,42.9-9,64.4c-0.5,3.8,0.2,7.6,1.9,11c1.9,4.5,3.8,9,5.6,13.6
			c0.7,2,2.6,3.6,4.9,3.9c2.5,0.4,5.1,0.8,7.6,1.3c2.2,0.4,4.3-0.3,5.8-2c1.1-1.2,2.1-2.4,3.2-3.6c0.6,1.5,1.1,3,1.7,4.6
			c0.8,2,2.5,3.4,4.7,3.8c2.6,0.5,5.2,1,7.7,1.5c2.2,0.4,4.3-0.2,5.9-1.8c3.3-3.6,6.7-7.2,10.1-10.8c2.8-2.7,4.8-6.1,5.6-9.7
			c4.7-21.1,9.4-42.3,14.1-63.4C616.2,109.5,613.8,106.3,610,105.5z"/>
		<path class="st1" d="M643.2,113.1c-12.2-3.1-24.1,3.1-26.5,13.6c-5.3,23.4-10.7,46.8-16,70.2c-0.7,3.2,1.3,6.4,4.7,7.2
			c1.5,0.3,2.9,0.7,4.4,1c3.4,0.8,6.6-1,7.4-4.3c5.8-23.3,11.6-46.6,17.5-69.9c0.5-1.8,2.4-2.8,4.4-2.3c1.9,0.5,3.1,2.3,2.7,4.1
			c-6,23.2-12,46.5-18.1,69.7c-0.8,3.2,1.2,6.4,4.5,7.3c1.5,0.4,2.9,0.8,4.4,1.2c3.3,0.9,6.7-0.8,7.6-4c6.5-23.1,13-46.2,19.5-69.3
			C662.8,127.4,655.3,116.2,643.2,113.1z"/>
	</g>
</g>
<rect x="297.6" y="347" class="st7" width="251.8" height="12"/>
<rect x="419.8" y="327.6" class="st1" width="7.5" height="19.4"/>
<g>
	<rect x="311.9" y="359" class="st8" width="9" height="45.5"/>
	<rect x="526.1" y="359" class="st8" width="9" height="45.5"/>
</g>
<circle class="st1" cx="477.5" cy="314.7" r="6.9"/>
<g>
	<g>
		<g>
			<path class="st8" d="M634.2,343.7l0.3-0.2c2.2-1.6,2.8-4.7,1.2-6.9l-9.4-13.3l-8.4,5.9l9.4,13.3
				C628.9,344.7,632,345.2,634.2,343.7z"/>
			<circle class="st9" cx="611.4" cy="311" r="21.3"/>
		</g>
	</g>
	<path class="st10" d="M643,307.1L643,307.1c-6.4-1.7-10.2-8.4-8.5-14.8l1.4-5.2c3.3-12,15.7-19.2,27.7-15.9l0,0
		c0.8,0.2,1.3,1,1.1,1.8l-6.9,25.6C656,305.1,649.4,308.9,643,307.1z"/>
	<path class="st10" d="M722.3,404.7L722.3,404.7h19.3c4.7,0,8.5-3.8,8.5-8.5l0,0c0-4.7-3.8-8.5-8.5-8.5h-2.3
		C729.9,387.7,722.3,395.3,722.3,404.7z"/>
	<path class="st11" d="M696.5,258.8L696.5,258.8c-13,0-23.6,10.5-23.6,23.6v1.1H720v-1.1C720,269.3,709.5,258.8,696.5,258.8z"/>
	<path class="st11" d="M730.8,404.7h-73.4v-97.3h0c40.5,0,73.4,32.8,73.4,73.4V404.7z"/>
	<path class="st11" d="M720,331.3h-75.7v-51.8c0-6.8,5.5-12.2,12.2-12.2h40.8c12.5,0,22.6,10.1,22.6,22.6V331.3z"/>
	<path class="st11" d="M707.7,336h-52.5c-11.5,0-20.8-9.4-20.8-20.8v0c0-11.5,9.4-20.8,20.8-20.8h52.5c11.5,0,20.8,9.4,20.8,20.8v0
		C728.5,326.6,719.1,336,707.7,336z"/>
	<g>
		<circle class="st1" cx="655.2" cy="296.6" r="13.1"/>
		<circle class="st8" cx="654" cy="297" r="8.9"/>
		<circle class="st1" cx="649.8" cy="292" r="4.6"/>
	</g>
	<g>
		<circle class="st1" cx="684.5" cy="296.6" r="13.1"/>
		<circle class="st8" cx="683.4" cy="297" r="8.9"/>
		<circle class="st1" cx="679.1" cy="292" r="4.6"/>
	</g>
	<path class="st11" d="M663.3,258.8L663.3,258.8c-10.4,0-18.9,8.5-18.9,18.9v0.9h37.8v-0.9C682.2,267.2,673.7,258.8,663.3,258.8z"/>
	<path class="st11" d="M682.2,268.8l-14.7,1.5v-16c0-1.4,1.1-2.5,2.5-2.5l0,0c0.8,0,1.6,0.4,2.1,1.1L682.2,268.8z"/>
	<path class="st11" d="M686.9,271l-14-3l6.5-13.9c0.6-1.3,2.1-1.8,3.4-1.2l0,0c0.8,0.4,1.3,1.1,1.4,1.9L686.9,271z"/>
	<polygon class="st1" points="716.7,289.1 715.8,288.6 714.8,288.1 713.8,287.6 712.6,287.6 711.6,287 710.6,286.4 709.4,286.5
		708.5,285.7 707.3,285.9 706.4,285.1 705.2,285 704.1,284.8 703.1,284.1 702,283.9 700.8,284.1 699.8,283.5 698.8,283 697.6,283.1
		696.6,282.7 695.5,282.6 694.4,282.2 693.4,281.8 692.2,281.8 691.1,281.6 690,281.7 688.9,281.3 687.8,280.9 686.7,280.7
		685.6,280.8 684.5,280.8 683.4,280.4 682.3,280 681.2,280.1 680.1,280.2 678.9,280.3 677.9,279.6 676.8,279.7 675.6,280
		674.5,279.5 673.4,279.9 672.3,279.4 671.2,279.7 670.1,279.2 668.9,279.3 667.8,279.5 666.7,279.2 665.6,279.5 664.5,279.7
		663.4,280 662.3,280.1 661.2,279.9 660,279.7 658.9,279.7 657.8,280.4 656.7,280.3 655.6,280 654.5,280.5 653.4,280.4 652.3,280.7
		651.1,280.8 650.1,281.4 649,281.6 647.8,281.3 646.7,281.3 645.8,282.3 644.6,282 643.5,282.6 642.3,282.5 641.3,281.8
		640.3,281.4 639.2,281 638.2,280.4 637.5,279.4 637.3,278.2 636.5,277.3 637,277.1 636.2,276.1 636.4,275 636.4,273.8 636.9,272.9
		637.8,272.1 638.2,271.1 638.8,270.2 639.6,269.3 640.7,269 641.7,268.6 642.9,268.5 644,268.6 645.1,268.4 646.1,268 647.3,268.2
		648.3,267.4 649.4,267.2 650.6,267.6 651.6,266.9 652.7,267 653.9,267.3 654.9,267.1 656,266.7 657.1,266.3 658.2,266.3 659.3,266
		660.4,266.3 661.5,266.5 662.6,266.3 663.7,266.4 664.8,266.2 665.9,265.9 667.1,266.3 668.2,265.7 669.3,265.9 670.4,265.8
		671.5,265.9 672.6,266.2 673.7,265.8 674.8,266 675.9,266.4 677,266.1 678.1,266.5 679.2,266.2 680.3,266.3 681.4,266.6
		682.5,266.9 683.6,266.6 684.7,266.8 685.8,267.2 686.9,267.5 688,267.6 689.1,267.2 690.2,267.6 691.3,267.9 692.4,267.6
		693.5,268.2 694.6,268.2 695.7,268.3 696.8,268.5 697.9,268.8 698.9,269.1 699.9,269.8 701,270.1 702.1,270.1 703.2,270.4
		704.3,270.3 705.4,270.6 706.4,271.2 707.4,271.7 708.6,271.6 709.5,272.4 710.7,272.2 711.6,273.2 712.7,273.2 713.9,273.2
		714.7,274.1 715.8,274.3 716.8,274.9 717.8,275.3 719,275.4 720,275.7 721,276.3 722.3,276.6 721.9,277.9 721.5,278.9 720.4,279.7
		720.5,281 719.8,281.9 719.3,282.9 719,284 718.7,285.1 718.1,286.1 717.3,287 717.1,288.1 	"/>
	<path class="st10" d="M733.8,307.1L733.8,307.1c6.4-1.7,10.2-8.4,8.5-14.8l-1.4-5.2c-3.3-12-15.7-19.2-27.7-15.9v0
		c-0.8,0.2-1.3,1-1.1,1.8l6.9,25.6C720.8,305.1,727.4,308.9,733.8,307.1z"/>
	<polygon class="st11" points="669.8,293.5 697.6,288.1 692.2,283.4 679.9,280.4 672.9,283.5 	"/>
	<path class="st11" d="M724.5,404.7h-71.1c-5.1,0-9.3-4.1-9.3-9.3l0,0c0-5.1,4.1-9.3,9.3-9.3h71.1c0.4,0,0.7,0.3,0.7,0.7V404
		C725.2,404.4,724.9,404.7,724.5,404.7z"/>
	<circle class="st11" cx="638" cy="348.7" r="12.2"/>
	<path class="st10" d="M657.5,346L657.5,346l0,40.2h29.5v-10.7C686.9,359.2,673.8,346,657.5,346z"/>
	<path class="st10" d="M670.4,309h-5.7h-12.6c-2.8,0-5.2,2.3-5.2,5.2l0,0c0,6.1,4.6,11.4,10.7,12c1.3,0.1,2.6,0,3.8-0.3
		c4-1,8.1-1,12.1,0c1.2,0.3,2.5,0.4,3.8,0.3c6.1-0.5,10.7-5.8,10.7-12l0,0c0-2.8-2.3-5.2-5.2-5.2H670.4z"/>
	<path class="st8" d="M671.5,311.2l-4.5,1.6c-0.6,0.2-1.4,0.2-2,0l-4.5-1.6c-1.2-0.4-2.1-1.6-2.1-2.9l0,0c0-1.7,1.4-3.1,3.1-3.1h8.9
		c1.7,0,3.1,1.4,3.1,3.1l0,0C673.6,309.6,672.7,310.8,671.5,311.2z"/>
</g>
<g>
	<g>
		<g>
			<path class="st8" d="M212.8,343.7l-0.3-0.2c-2.2-1.6-2.8-4.7-1.2-6.9l9.4-13.3l8.4,5.9l-9.4,13.3
				C218.1,344.7,215,345.2,212.8,343.7z"/>
			<circle class="st9" cx="235.6" cy="311" r="21.3"/>
		</g>
	</g>
	<path class="st10" d="M204,307.1L204,307.1c6.4-1.7,10.2-8.4,8.5-14.8l-1.4-5.2c-3.3-12-15.7-19.2-27.7-15.9l0,0
		c-0.8,0.2-1.3,1-1.1,1.8l6.9,25.6C191,305.1,197.6,308.9,204,307.1z"/>
	<path class="st10" d="M124.7,404.7L124.7,404.7h-19.3c-4.7,0-8.5-3.8-8.5-8.5l0,0c0-4.7,3.8-8.5,8.5-8.5h2.3
		C117.1,387.7,124.7,395.3,124.7,404.7z"/>
	<path class="st11" d="M150.5,258.8L150.5,258.8c13,0,23.6,10.5,23.6,23.6v1.1H127v-1.1C127,269.3,137.5,258.8,150.5,258.8z"/>
	<path class="st11" d="M116.2,404.7h73.4v-97.3h0c-40.5,0-73.4,32.8-73.4,73.4V404.7z"/>
	<path class="st11" d="M127,331.3h75.7v-51.8c0-6.8-5.5-12.2-12.2-12.2h-40.8c-12.5,0-22.6,10.1-22.6,22.6V331.3z"/>
	<path class="st11" d="M139.3,336h52.5c11.5,0,20.8-9.4,20.8-20.8v0c0-11.5-9.4-20.8-20.8-20.8h-52.5c-11.5,0-20.8,9.4-20.8,20.8v0
		C118.5,326.6,127.9,336,139.3,336z"/>
	<g>
		<circle class="st1" cx="191.8" cy="296.6" r="13.1"/>
		<circle class="st8" cx="193" cy="297" r="8.9"/>
		<circle class="st1" cx="197.2" cy="292" r="4.6"/>
	</g>
	<g>
		<circle class="st1" cx="162.5" cy="296.6" r="13.1"/>
		<circle class="st8" cx="163.6" cy="297" r="8.9"/>
		<circle class="st1" cx="167.9" cy="292" r="4.6"/>
	</g>
	<path class="st11" d="M183.7,258.8L183.7,258.8c10.4,0,18.9,8.5,18.9,18.9v0.9h-37.8v-0.9C164.8,267.2,173.3,258.8,183.7,258.8z"/>
	<path class="st11" d="M164.8,268.8l14.7,1.5v-16c0-1.4-1.1-2.5-2.5-2.5l0,0c-0.8,0-1.6,0.4-2.1,1.1L164.8,268.8z"/>
	<path class="st11" d="M160.1,271l14-3l-6.5-13.9c-0.6-1.3-2.1-1.8-3.4-1.2l0,0c-0.8,0.4-1.3,1.1-1.4,1.9L160.1,271z"/>
	<path class="st11" d="M123.7,404.7h71.1c5.1,0,9.3-4.1,9.3-9.3l0,0c0-5.1-4.1-9.3-9.3-9.3h-71.1c-0.4,0-0.7,0.3-0.7,0.7V404
		C123,404.4,123.3,404.7,123.7,404.7z"/>
	<circle class="st11" cx="210.2" cy="347.5" r="12.2"/>
	<path class="st10" d="M189.5,346L189.5,346l0,40.2h-29.5v-10.7C160.1,359.2,173.2,346,189.5,346z"/>
	<path class="st10" d="M161.4,309.1h20.3h3.8H196c5.3,0,9.6,4.3,9.6,9.6v0c0,5.3-4.3,9.6-9.6,9.6h-4.7c-2.9,0-5.4-1.3-7.2-3.3
		c-1.2-1.4-3.3-1.5-4.8-0.4c-2.8,2.3-6.4,3.6-10.3,3.6h-7.6c-5.3,0-9.6-4.3-9.6-9.6l0,0C151.9,313.4,156.2,309.1,161.4,309.1z"/>
	<path class="st8" d="M175.5,311.2l4.5,1.6c0.6,0.2,1.4,0.2,2,0l4.5-1.6c1.2-0.4,2.1-1.6,2.1-2.9l0,0c0-1.7-1.4-3.1-3.1-3.1h-8.9
		c-1.7,0-3.1,1.4-3.1,3.1l0,0C173.4,309.6,174.3,310.8,175.5,311.2z"/>
	<g>
		<g>
			<polygon class="st9" points="187.3,238.5 194.2,243.3 189.4,250.2 			"/>
			<polygon class="st9" points="126.3,249.5 121.5,256.4 128.4,261.2 			"/>
		</g>
		<path class="st12" d="M129.7,269.8l61.3-11.1l-1.9-10.5l-4.5-25.5c-0.3,0-0.5,0.1-0.8,0.2c-2.9,0.8-5.1,3-6.1,5.7l-3.6,9.3
			c-0.6,1.5-1.9,2.6-3.5,2.9l0,0c-1.9,0.3-3.8-0.5-4.8-2.2l-6.6-11.3c-1.1-1.9-3.1-3.1-5.2-3c-2.7,0.1-5,2.1-5.4,4.7l-2.3,13.1
			c-0.3,1.9-1.8,3.4-3.7,3.8h0c-1.6,0.3-3.2-0.3-4.3-1.5l-6.6-7.5c-1.9-2.2-4.8-3.5-7.7-3.2c-0.3,0-0.5,0.1-0.8,0.1L129.7,269.8z"/>
		<path class="st13" d="M190.8,261.3L131,272.1c-1.6,0.3-3.1-0.8-3.4-2.3l0,0c-0.3-1.6,0.8-3.1,2.3-3.4l59.8-10.8
			c1.6-0.3,3.1,0.8,3.4,2.3l0,0C193.4,259.6,192.4,261.1,190.8,261.3z"/>

			<rect x="153.6" y="245.6" transform="matrix(0.5703 -0.8214 0.8214 0.5703 -137.4008 237.02)" class="st9" width="8.5" height="8.5"/>
	</g>
	<path class="st10" d="M112.9,313.3L112.9,313.3c-7.5-2-12-9.8-10-17.4l1.7-6.1c3.8-14.1,18.4-22.5,32.6-18.7h0
		c0.9,0.3,1.5,1.2,1.2,2.2l-8.1,30C128.2,310.8,120.4,315.3,112.9,313.3z"/>
</g>
<g>
	<path class="st3" d="M437.9,11.3l-0.2,0.5c-0.6,1.5-2.1,2.5-3.7,2.5h0c-1.5,0-2.9-0.9-3.6-2.3L427,5c-0.7-1.5-2.1-2.2-3.5-2.2
		c-1.4,0-2.8,0.7-3.5,2.2l-3.4,7c-0.7,1.4-2.1,2.3-3.6,2.3c-1.6,0-3.1-1-3.7-2.5l-0.2-0.5c-1.8-4.3-5.6-7.1-9.8-7.1v10v7.5v11h24.2
		h24.2v-11v-7.5v-10C443.5,4.2,439.7,7,437.9,11.3z"/>
	<g>

			<rect x="420.3" y="18.6" transform="matrix(0.7071 -0.7071 0.7071 0.7071 108.6638 305.8289)" class="st9" width="6.4" height="6.4"/>

			<rect x="444.5" y="18.6" transform="matrix(0.7071 -0.7071 0.7071 0.7071 115.753 322.9436)" class="st9" width="6.4" height="6.4"/>

			<rect x="396.1" y="18.6" transform="matrix(0.7071 -0.7071 0.7071 0.7071 101.5747 288.7142)" class="st9" width="6.4" height="6.4"/>
	</g>
</g>
<g>
	<path class="st5" d="M688.8,187.8c-7.5-7.5-7.5-19.7,0-27.3l29.4-29.4c-0.2-0.3-0.3-0.6-0.4-0.9c-0.3-0.6-0.6-1.2-0.8-1.8
		c-0.2-0.4-0.4-0.9-0.6-1.3c-0.2-0.4-0.3-0.8-0.5-1.2c-0.2-0.5-0.4-0.9-0.5-1.4c-0.2-0.4-0.3-0.9-0.5-1.3c-0.2-0.6-0.4-1.3-0.6-1.9
		c-0.1-0.3-0.2-0.7-0.3-1c-0.2-0.5-0.3-1.1-0.4-1.6c0,0-0.2-0.7-0.2-0.9c-0.2-0.8-0.4-1.6-0.5-2.4c0-0.2-0.1-0.8-0.1-0.8
		c-0.1-0.6-0.2-1.2-0.3-1.9l-0.1-0.8c-0.1-0.8-0.2-1.7-0.3-2.5l0-0.5c-0.1-0.7-0.1-1.4-0.1-2.2c0-0.2,0-0.5,0-0.7c0-0.9,0-1.7,0-2.6
		l0-0.5l0,0c0.3-15.9,6.6-30.8,17.8-42c1-1,2.2-2.1,3.5-3.2c1.1-1.3,2.1-2.4,3.2-3.5c23.8-23.8,62.4-23.8,86.2,0s23.8,62.4,0,86.2
		c-1.1,1.1-2.2,2.1-3.5,3.2c-1.1,1.3-2.1,2.4-3.2,3.5c-11.4,11.4-26.5,17.7-42.6,17.8c-0.9,0-1.8,0-2.6,0c-0.2,0-0.5,0-0.7,0
		c-0.7,0-1.4-0.1-2.2-0.1l-0.5,0c-0.9-0.1-1.7-0.2-2.6-0.3l-0.8-0.1c-0.6-0.1-1.3-0.2-1.9-0.3c0,0-0.6-0.1-0.8-0.1
		c-0.8-0.2-1.6-0.3-2.4-0.5c-0.2,0-0.9-0.2-0.9-0.2c-0.6-0.1-1.1-0.3-1.6-0.4c-0.4-0.1-0.7-0.2-1-0.3c-0.6-0.2-1.3-0.4-1.9-0.6
		c-0.4-0.1-0.9-0.3-1.3-0.5c-0.5-0.2-1-0.3-1.4-0.5c-0.4-0.2-0.8-0.3-1.2-0.5c-0.4-0.2-0.9-0.4-1.3-0.6c-0.6-0.3-1.2-0.5-1.8-0.8
		c-0.3-0.1-0.6-0.3-0.9-0.4l-29.4,29.4C708.6,195.3,696.4,195.3,688.8,187.8z"/>
	<path class="st6" d="M745.6,152c0.3,0.2,0.7,0.4,1,0.6c0.4,0.2,0.7,0.4,1.1,0.6c0.4,0.2,0.8,0.4,1.2,0.6c0.5,0.3,1.1,0.5,1.6,0.7
		c0.4,0.2,0.8,0.3,1.2,0.5c0.4,0.1,0.7,0.3,1.1,0.4c0.4,0.2,0.9,0.3,1.3,0.5c0.4,0.1,0.8,0.3,1.2,0.4c0.6,0.2,1.1,0.4,1.7,0.5
		c0.3,0.1,0.6,0.2,0.9,0.3c0.5,0.1,1,0.3,1.5,0.4c0.3,0.1,0.5,0.1,0.8,0.2c0.7,0.2,1.4,0.3,2.2,0.5c0.2,0,0.5,0.1,0.7,0.1
		c0.6,0.1,1.1,0.2,1.7,0.3c0.2,0,0.5,0.1,0.7,0.1c0.8,0.1,1.5,0.2,2.3,0.3c0.1,0,0.3,0,0.4,0c0.7,0.1,1.3,0.1,2,0.1
		c0.2,0,0.4,0,0.7,0c0.8,0,1.6,0,2.4,0c14-0.1,28-5.5,38.6-16.2c21.6-21.6,21.6-56.6,0-78.2l0,0l0,0c-21.6-21.6-56.6-21.6-78.2,0
		c-10.7,10.7-16.1,24.6-16.2,38.6c0,0,0,0,0,0c0,0.8,0,1.6,0,2.4c0,0.2,0,0.4,0,0.7c0,0.7,0.1,1.3,0.1,2c0,0.2,0,0.3,0,0.5
		c0.1,0.8,0.2,1.5,0.3,2.3c0,0.2,0.1,0.5,0.1,0.7c0.1,0.6,0.2,1.1,0.3,1.7c0,0.2,0.1,0.5,0.1,0.7c0.1,0.7,0.3,1.4,0.5,2.2
		c0.1,0.3,0.1,0.5,0.2,0.8c0.1,0.5,0.3,1,0.4,1.5c0.1,0.3,0.2,0.6,0.3,0.9c0.2,0.6,0.4,1.1,0.5,1.7c0.1,0.4,0.3,0.8,0.4,1.2
		c0.2,0.4,0.3,0.9,0.5,1.3c0.1,0.4,0.3,0.7,0.4,1.1c0.2,0.4,0.3,0.8,0.5,1.2c0.2,0.5,0.5,1.1,0.7,1.6c0.2,0.4,0.4,0.8,0.6,1.2
		c0.2,0.4,0.4,0.7,0.6,1.1c0.2,0.3,0.4,0.7,0.6,1c0.2,0.4,0.4,0.7,0.6,1.1c0,0,0,0,0,0l-32.4,32.4c-5.3,5.3-5.3,14,0,19.3l0,0l0,0
		c5.3,5.3,14,5.3,19.3,0l32.4-32.4c0,0,0,0,0,0C744.9,151.6,745.2,151.8,745.6,152z"/>
	<path class="st1" d="M818.5,136.3c21.6-21.6,21.6-56.6,0-78.2c-21.6-21.6-56.6-21.6-78.2,0c-10.7,10.7-16.1,24.6-16.2,38.6
		c-0.1,9.9,2.5,19.9,7.7,28.7l-32.4,32.4c-5.3,5.3-5.3,14,0,19.3s14,5.3,19.3,0l32.4-32.4c8.8,5.2,18.8,7.8,28.7,7.7
		C793.9,152.4,807.9,147,818.5,136.3z"/>
	<g>
		<path class="st9" d="M818.5,136.3c21.6-21.6,21.6-56.6,0-78.2c-21.6-21.6-56.6-21.6-78.2,0c-10.7,10.7-16.1,24.6-16.2,38.6
			l55.8,55.8C793.9,152.4,807.9,147,818.5,136.3z"/>

			<pattern  id="SVGID_1_" xlink:href="#New_Pattern" patternTransform="matrix(0.6649 0.6649 -0.6649 0.6649 -7329.1108 2246.4978)">
		</pattern>
		<path class="st14" d="M818.5,136.3c21.6-21.6,21.6-56.6,0-78.2c-21.6-21.6-56.6-21.6-78.2,0c-10.7,10.7-16.1,24.6-16.2,38.6
			l55.8,55.8C793.9,152.4,807.9,147,818.5,136.3z"/>
		<path class="st1" d="M740.3,136.3c10.9,10.9,25.3,16.3,39.6,16.2l-55.8-55.8C724,111,729.4,125.4,740.3,136.3z"/>
	</g>
	<path class="st1" d="M699.5,177.2L699.5,177.2c-5.3-5.3-5.3-14,0-19.3l37.8-37.8l19.3,19.3l-37.8,37.8
		C713.4,182.5,704.8,182.5,699.5,177.2z"/>
	<path class="st5" d="M158.2,187.8c7.5-7.5,7.5-19.7,0-27.3l-29.4-29.4c0.2-0.3,0.3-0.6,0.4-0.9c0.3-0.6,0.6-1.2,0.8-1.8
		c0.2-0.4,0.4-0.9,0.6-1.3c0.2-0.4,0.3-0.8,0.5-1.2c0.2-0.5,0.4-0.9,0.5-1.4c0.2-0.4,0.3-0.9,0.5-1.3c0.2-0.6,0.4-1.3,0.6-1.9
		c0.1-0.3,0.2-0.7,0.3-1c0.2-0.5,0.3-1.1,0.4-1.6c0,0,0.2-0.7,0.2-0.9c0.2-0.8,0.4-1.6,0.5-2.4c0-0.2,0.1-0.8,0.1-0.8
		c0.1-0.6,0.2-1.2,0.3-1.9l0.1-0.8c0.1-0.8,0.2-1.7,0.3-2.5l0-0.5c0.1-0.7,0.1-1.4,0.1-2.2c0-0.2,0-0.5,0-0.7c0-0.9,0-1.7,0-2.6
		l0-0.5l0,0c-0.3-15.9-6.6-30.8-17.8-42c-1-1-2.2-2.1-3.5-3.2c-1.1-1.3-2.1-2.4-3.2-3.5c-23.8-23.8-62.4-23.8-86.2,0
		s-23.8,62.4,0,86.2c1.1,1.1,2.2,2.1,3.5,3.2c1.1,1.3,2.1,2.4,3.2,3.5c11.4,11.4,26.5,17.7,42.6,17.8c0.9,0,1.8,0,2.6,0
		c0.2,0,0.5,0,0.7,0c0.7,0,1.4-0.1,2.2-0.1l0.5,0c0.9-0.1,1.7-0.2,2.6-0.3l0.8-0.1c0.6-0.1,1.3-0.2,1.9-0.3c0,0,0.6-0.1,0.8-0.1
		c0.8-0.2,1.6-0.3,2.4-0.5c0.2,0,0.9-0.2,0.9-0.2c0.6-0.1,1.1-0.3,1.6-0.4c0.4-0.1,0.7-0.2,1-0.3c0.6-0.2,1.3-0.4,1.9-0.6
		c0.4-0.1,0.9-0.3,1.3-0.5c0.5-0.2,1-0.3,1.4-0.5c0.4-0.2,0.8-0.3,1.2-0.5c0.4-0.2,0.9-0.4,1.3-0.6c0.6-0.3,1.2-0.5,1.8-0.8
		c0.3-0.1,0.6-0.3,0.9-0.4l29.4,29.4C138.4,195.3,150.6,195.3,158.2,187.8z"/>
	<path class="st6" d="M101.4,152c-0.3,0.2-0.7,0.4-1,0.6c-0.4,0.2-0.7,0.4-1.1,0.6c-0.4,0.2-0.8,0.4-1.2,0.6
		c-0.5,0.3-1.1,0.5-1.6,0.7c-0.4,0.2-0.8,0.3-1.2,0.5c-0.4,0.1-0.7,0.3-1.1,0.4c-0.4,0.2-0.9,0.3-1.3,0.5c-0.4,0.1-0.8,0.3-1.2,0.4
		c-0.6,0.2-1.1,0.4-1.7,0.5c-0.3,0.1-0.6,0.2-0.9,0.3c-0.5,0.1-1,0.3-1.5,0.4c-0.3,0.1-0.5,0.1-0.8,0.2c-0.7,0.2-1.4,0.3-2.2,0.5
		c-0.2,0-0.5,0.1-0.7,0.1c-0.6,0.1-1.1,0.2-1.7,0.3c-0.2,0-0.5,0.1-0.7,0.1c-0.8,0.1-1.5,0.2-2.3,0.3c-0.1,0-0.3,0-0.4,0
		c-0.7,0.1-1.3,0.1-2,0.1c-0.2,0-0.4,0-0.7,0c-0.8,0-1.6,0-2.4,0c-14-0.1-28-5.5-38.6-16.2c-21.6-21.6-21.6-56.6,0-78.2l0,0l0,0
		c21.6-21.6,56.6-21.6,78.2,0c10.7,10.7,16.1,24.6,16.2,38.6c0,0,0,0,0,0c0,0.8,0,1.6,0,2.4c0,0.2,0,0.4,0,0.7c0,0.7-0.1,1.3-0.1,2
		c0,0.2,0,0.3,0,0.5c-0.1,0.8-0.2,1.5-0.3,2.3c0,0.2-0.1,0.5-0.1,0.7c-0.1,0.6-0.2,1.1-0.3,1.7c0,0.2-0.1,0.5-0.1,0.7
		c-0.1,0.7-0.3,1.4-0.5,2.2c-0.1,0.3-0.1,0.5-0.2,0.8c-0.1,0.5-0.3,1-0.4,1.5c-0.1,0.3-0.2,0.6-0.3,0.9c-0.2,0.6-0.4,1.1-0.5,1.7
		c-0.1,0.4-0.3,0.8-0.4,1.2c-0.2,0.4-0.3,0.9-0.5,1.3c-0.1,0.4-0.3,0.7-0.4,1.1c-0.2,0.4-0.3,0.8-0.5,1.2c-0.2,0.5-0.5,1.1-0.7,1.6
		c-0.2,0.4-0.4,0.8-0.6,1.2c-0.2,0.4-0.4,0.7-0.6,1.1c-0.2,0.3-0.4,0.7-0.6,1c-0.2,0.4-0.4,0.7-0.6,1.1c0,0,0,0,0,0l32.4,32.4
		c5.3,5.3,5.3,14,0,19.3l0,0l0,0c-5.3,5.3-14,5.3-19.3,0l-32.4-32.4c0,0,0,0,0,0C102.1,151.6,101.8,151.8,101.4,152z"/>
	<path class="st1" d="M28.5,136.3c-21.6-21.6-21.6-56.6,0-78.2c21.6-21.6,56.6-21.6,78.2,0c10.7,10.7,16.1,24.6,16.2,38.6
		c0.1,9.9-2.5,19.9-7.7,28.7l32.4,32.4c5.3,5.3,5.3,14,0,19.3c-5.3,5.3-14,5.3-19.3,0l-32.4-32.4c-8.8,5.2-18.8,7.8-28.7,7.7
		C53.1,152.4,39.1,147,28.5,136.3z"/>
	<g>
		<path class="st9" d="M28.5,136.3c-21.6-21.6-21.6-56.6,0-78.2c21.6-21.6,56.6-21.6,78.2,0c10.7,10.7,16.1,24.6,16.2,38.6
			l-55.8,55.8C53.1,152.4,39.1,147,28.5,136.3z"/>

			<pattern  id="SVGID_2_" xlink:href="#New_Pattern" patternTransform="matrix(-0.6649 0.6649 0.6649 0.6649 -7715.1533 2246.4978)">
		</pattern>
		<path class="st15" d="M28.5,136.3c-21.6-21.6-21.6-56.6,0-78.2c21.6-21.6,56.6-21.6,78.2,0c10.7,10.7,16.1,24.6,16.2,38.6
			l-55.8,55.8C53.1,152.4,39.1,147,28.5,136.3z"/>
		<path class="st1" d="M106.7,136.3c-10.9,10.9-25.3,16.3-39.6,16.2l55.8-55.8C123,111,117.6,125.4,106.7,136.3z"/>
	</g>
	<path class="st1" d="M147.5,177.2L147.5,177.2c5.3-5.3,5.3-14,0-19.3l-37.8-37.8l-19.3,19.3l37.8,37.8
		C133.6,182.5,142.2,182.5,147.5,177.2z"/>
</g>
<g>
	<polygon class="st3" points="248.3,10.2 251.1,21.6 262,25.8 252,32 251.4,43.7 242.5,36.1 231.2,39.1 235.6,28.3 229.2,18.5
		240.9,19.3 	"/>
	<polygon class="st3" points="598.7,10.2 595.9,21.6 585,25.8 595,32 595.6,43.7 604.5,36.1 615.8,39.1 611.4,28.3 617.8,18.5
		606.1,19.3 	"/>
</g>
</svg>
