<?xml version="1.0" encoding="utf-8"?>
<!-- Generator: Adobe Illustrator 22.0.1, SVG Export Plug-In . SVG Version: 6.00 Build 0)  -->
<svg version="1.1" id="Layer_1" xmlns="http://www.w3.org/2000/svg" xmlns:xlink="http://www.w3.org/1999/xlink" x="0px" y="0px"
	 viewBox="0 0 840 246" style="enable-background:new 0 0 840 246;" xml:space="preserve">
<style type="text/css">
	.st0{fill:#FFFEF7;}
	.st1{fill:#80DDCB;}
	.st2{fill:#411661;}
	.st3{fill:#FF5F6F;}
	.st4{fill:#CF595F;}
	.st5{fill:#F5956D;}
	.st6{fill:#FFFFFF;}
	.st7{fill:#079992;}
	.st8{fill:#FCCC44;}
	.st9{fill:#FDBC42;}
</style>
<path class="st0" d="M798.3,116.3l5.7-3.3c1.6-0.9,1.6-3.2,0-4.1l-5.7-3.3c-0.4-0.2-0.7-0.5-0.9-0.9l-3.3-5.7
	c-0.9-1.6-3.2-1.6-4.1,0l-3.3,5.7c-0.2,0.4-0.5,0.7-0.9,0.9l-5.7,3.3c-1.6,0.9-1.6,3.2,0,4.1l5.7,3.3c0.4,0.2,0.7,0.5,0.9,0.9
	l3.3,5.7c0.9,1.6,3.2,1.6,4.1,0l3.3-5.7C797.7,116.8,798,116.5,798.3,116.3z"/>
<path class="st0" d="M55.3,188.5l1.7-6.4c0.5-1.8-1.2-3.4-2.9-2.9l-6.4,1.7c-0.4,0.1-0.8,0.1-1.2,0l-6.4-1.7
	c-1.8-0.5-3.4,1.2-2.9,2.9l1.7,6.4c0.1,0.4,0.1,0.8,0,1.2l-1.7,6.4c-0.5,1.8,1.2,3.4,2.9,2.9l6.4-1.7c0.4-0.1,0.8-0.1,1.2,0L54,199
	c1.8,0.5,3.4-1.2,2.9-2.9l-1.7-6.4C55.2,189.3,55.2,188.9,55.3,188.5z"/>
<g>
	<ellipse class="st1" cx="419" cy="313.9" rx="325.6" ry="239.4"/>
	<g>
		<g>
			<path class="st2" d="M599.3,169.2l2.8-2c2.2-1.6,2.8-4.7,1.2-6.9l-13-18.4l-10.9,7.7l13,18.4C594,170.2,597,170.8,599.3,169.2z"
				/>
			<circle class="st3" cx="570.9" cy="126" r="27.5"/>
		</g>
	</g>
	<path class="st4" d="M611.8,121L611.8,121c-8.3-2.3-13.2-10.8-11-19.1l1.8-6.8c4.2-15.6,20.3-24.8,35.9-20.6v0
		c1,0.3,1.6,1.3,1.4,2.4l-9,33.1C628.7,118.4,620.1,123.3,611.8,121z"/>
	<path class="st4" d="M714.6,247.4L714.6,247.4l25,0c6.1,0,11-4.9,11-11v0c0-6.1-4.9-11-11-11h-3
		C724.4,225.4,714.6,235.2,714.6,247.4z"/>
	<path class="st5" d="M681.1,58.4L681.1,58.4c-16.8,0-30.5,13.7-30.5,30.5v1.4h61v-1.4C711.6,72,697.9,58.4,681.1,58.4z"/>
	<path class="st5" d="M725.6,247.4h-95v-126h20.5c41.1,0,74.5,33.4,74.5,74.5V247.4z"/>
	<path class="st5" d="M711.6,152.4h-98V81.6c0-6.8,5.5-12.2,12.2-12.2H689c12.5,0,22.6,10.1,22.6,22.6V152.4z"/>
	<path class="st5" d="M696,158.4h-68.9c-14.6,0-26.6-12-26.6-26.6v-0.9c0-14.6,12-26.6,26.6-26.6H696c14.6,0,26.6,12,26.6,26.6v0.9
		C722.6,146.4,710.6,158.4,696,158.4z"/>
	<g>
		<circle class="st6" cx="627.6" cy="107.4" r="17"/>
		<circle class="st2" cx="626.1" cy="107.9" r="11.5"/>
		<circle class="st6" cx="620.6" cy="101.4" r="6"/>
	</g>
	<g>
		<circle class="st6" cx="665.6" cy="107.4" r="17"/>
		<circle class="st2" cx="664.1" cy="107.9" r="11.5"/>
		<circle class="st6" cx="658.6" cy="101.4" r="6"/>
	</g>
	<path class="st5" d="M638.1,58.4L638.1,58.4c-13.5,0-24.5,11-24.5,24.5V84h49v-1.1C662.6,69.3,651.6,58.4,638.1,58.4z"/>
	<path class="st5" d="M662.6,71.4l-19,2V52.6c0-1.8,1.5-3.3,3.3-3.3l0,0c1.1,0,2.1,0.5,2.7,1.4L662.6,71.4z"/>
	<path class="st5" d="M668.8,74.3l-18.2-3.9l8.5-17.9c0.8-1.6,2.7-2.4,4.3-1.6v0c1,0.5,1.7,1.4,1.8,2.4L668.8,74.3z"/>
	<polygon class="st6" points="707.3,97.7 706.1,97 704.8,96.3 703.5,95.7 701.9,95.8 700.7,95 699.4,94.2 697.8,94.3 696.7,93.2 
		695.1,93.5 693.9,92.4 692.4,92.4 691,92.1 689.7,91.2 688.3,90.9 686.7,91.2 685.4,90.4 684.1,89.7 682.6,89.9 681.2,89.4 
		679.8,89.3 678.4,88.8 677.1,88.2 675.6,88.2 674.2,88 672.7,88 671.3,87.5 669.9,87.1 668.5,86.8 667,86.9 665.6,86.9 664.2,86.5 
		662.8,85.9 661.3,86 659.9,86.2 658.4,86.2 657,85.4 655.6,85.5 654.1,85.9 652.7,85.3 651.2,85.8 649.8,85.2 648.3,85.4 
		646.9,84.9 645.4,85 644,85.3 642.5,84.9 641.1,85.3 639.7,85.5 638.2,85.8 636.8,86.1 635.4,85.8 633.9,85.5 632.4,85.4 
		631.1,86.4 629.6,86.2 628.1,85.9 626.7,86.5 625.3,86.4 623.8,86.8 622.4,86.9 621.1,87.7 619.6,88 618.1,87.5 616.6,87.6 
		615.4,88.8 613.9,88.4 612.5,89.2 610.9,89.2 609.6,88.2 608.3,87.7 607,87.1 605.6,86.4 604.7,85.1 604.5,83.6 603.5,82.4 
		604.1,82.1 603,80.8 603.3,79.4 603.2,77.9 604,76.6 605.1,75.6 605.6,74.3 606.4,73.2 607.4,72.1 608.9,71.7 610.2,71.1 611.7,71 
		613.1,71.1 614.5,70.8 615.9,70.3 617.4,70.6 618.7,69.6 620.1,69.3 621.6,69.9 623,69 624.4,69.1 625.9,69.4 627.3,69.2 
		628.7,68.7 630.1,68.2 631.5,68.1 632.9,67.8 634.4,68.1 635.9,68.4 637.3,68.1 638.7,68.3 640.1,68 641.6,67.6 643,68.2 
		644.4,67.4 645.9,67.6 647.3,67.5 648.7,67.6 650.2,68 651.6,67.5 653,67.7 654.4,68.3 655.9,67.9 657.3,68.4 658.8,68.1 
		660.2,68.2 661.6,68.6 663,68.9 664.5,68.5 665.9,68.8 667.3,69.3 668.7,69.7 670.1,69.9 671.6,69.3 673,69.8 674.4,70.2 
		675.9,69.9 677.2,70.6 678.7,70.6 680.1,70.8 681.5,71 682.9,71.4 684.3,71.8 685.5,72.7 686.9,73 688.4,73.1 689.8,73.4 
		691.3,73.3 692.7,73.7 693.9,74.4 695.2,75.1 696.8,75 697.9,76.1 699.5,75.8 700.6,77.1 702.1,77.1 703.6,77.1 704.8,78.2 
		706.2,78.6 707.4,79.2 708.7,79.8 710.3,79.9 711.6,80.3 712.9,81.1 714.6,81.5 714.1,83.2 713.5,84.5 712,85.5 712.3,87.2 
		711.3,88.4 710.7,89.7 710.2,91.1 709.9,92.5 709.2,93.8 708.1,94.9 707.8,96.4 	"/>
	<path class="st4" d="M729.5,121L729.5,121c8.3-2.3,13.2-10.8,11-19.1l-1.8-6.8c-4.2-15.6-20.3-24.8-35.9-20.6l0,0
		c-1,0.3-1.6,1.3-1.4,2.4l9,33.1C712.6,118.4,721.1,123.3,729.5,121z"/>
	<polygon class="st5" points="646.6,103.4 682.6,96.4 675.6,90.3 659.6,86.4 650.6,90.4 	"/>
	<path class="st5" d="M717.3,247.4h-92.1c-6.6,0-12-5.4-12-12v0c0-6.6,5.4-12,12-12h92.1c0.5,0,0.9,0.4,0.9,0.9v22.2
		C718.3,247,717.8,247.4,717.3,247.4z"/>
	<rect x="317.2" y="158.4" class="st7" width="202" height="16"/>
	<rect x="413.2" y="132.4" class="st6" width="10" height="26"/>
	<rect x="339" y="174.4" class="st2" width="12" height="73"/>
	<rect x="485" y="174.4" class="st2" width="12" height="73"/>
	<circle class="st6" cx="473" cy="121.4" r="10.5"/>
	<circle class="st5" cx="605.4" cy="174.8" r="15.8"/>
	<path class="st4" d="M634,171.4h-3.4v52h38.2v-17.2C668.8,187,653.2,171.4,634,171.4z"/>
	<g>
		<g>
			<path class="st2" d="M240.7,169.2l-2.8-2c-2.2-1.6-2.8-4.7-1.2-6.9l13-18.4l10.9,7.7l-13,18.4C246,170.2,243,170.8,240.7,169.2z"
				/>
			<circle class="st3" cx="269.1" cy="126" r="27.5"/>
		</g>
	</g>
	<path class="st4" d="M228.2,121L228.2,121c8.3-2.3,13.2-10.8,11-19.1l-1.8-6.8c-4.2-15.6-20.3-24.8-35.9-20.6l0,0
		c-1,0.3-1.6,1.3-1.4,2.4l9,33.1C211.3,118.4,219.9,123.3,228.2,121z"/>
	<path class="st4" d="M125.4,247.4L125.4,247.4l-25,0c-6.1,0-11-4.9-11-11v0c0-6.1,4.9-11,11-11h3
		C115.6,225.4,125.4,235.2,125.4,247.4z"/>
	<path class="st5" d="M158.9,58.4L158.9,58.4c16.8,0,30.5,13.7,30.5,30.5v1.4h-61v-1.4C128.4,72,142.1,58.4,158.9,58.4z"/>
	<path class="st5" d="M114.4,247.4h95v-126h-20.5c-41.1,0-74.5,33.4-74.5,74.5V247.4z"/>
	<path class="st5" d="M128.4,152.4h98V81.6c0-6.8-5.5-12.2-12.2-12.2H151c-12.5,0-22.6,10.1-22.6,22.6V152.4z"/>
	<path class="st5" d="M144,158.4h68.9c14.6,0,26.6-12,26.6-26.6v-0.9c0-14.6-12-26.6-26.6-26.6H144c-14.6,0-26.6,12-26.6,26.6v0.9
		C117.4,146.4,129.4,158.4,144,158.4z"/>
	<g>
		<circle class="st6" cx="212.4" cy="107.4" r="17"/>
		<circle class="st2" cx="213.9" cy="107.9" r="11.5"/>
		<circle class="st6" cx="219.4" cy="101.4" r="6"/>
	</g>
	<g>
		<circle class="st6" cx="174.4" cy="107.4" r="17"/>
		<circle class="st2" cx="175.9" cy="107.9" r="11.5"/>
		<circle class="st6" cx="181.4" cy="101.4" r="6"/>
	</g>
	<path class="st5" d="M201.9,58.4L201.9,58.4c13.5,0,24.5,11,24.5,24.5V84h-49v-1.1C177.4,69.3,188.4,58.4,201.9,58.4z"/>
	<path class="st5" d="M177.4,71.4l19,2V52.6c0-1.8-1.5-3.3-3.3-3.3h0c-1.1,0-2.1,0.5-2.7,1.4L177.4,71.4z"/>
	<path class="st5" d="M171.2,74.3l18.2-3.9l-8.5-17.9c-0.8-1.6-2.7-2.4-4.3-1.6v0c-1,0.5-1.7,1.4-1.8,2.4L171.2,74.3z"/>
	<path class="st5" d="M124.2,247.4h92.1c6.6,0,12-5.4,12-12v0c0-6.6-5.4-12-12-12h-92.1c-0.5,0-0.9,0.4-0.9,0.9v22.2
		C123.2,247,123.7,247.4,124.2,247.4z"/>
	<circle class="st5" cx="236.1" cy="173.3" r="15.8"/>
	<path class="st4" d="M206,171.4h3.4v52h-38.2v-17.2C171.2,187,186.8,171.4,206,171.4z"/>
	<path class="st0" d="M293.5,57.5l9.4-5.5c2.6-1.5,2.6-5.3,0-6.9l-9.4-5.5c-0.6-0.3-1.1-0.8-1.4-1.4l-5.5-9.4
		c-1.5-2.6-5.3-2.6-6.9,0l-5.5,9.4c-0.3,0.6-0.8,1.1-1.4,1.4l-9.4,5.5c-2.6,1.5-2.6,5.3,0,6.9l9.4,5.5c0.6,0.3,1.1,0.8,1.4,1.4
		l5.5,9.4c1.5,2.6,5.3,2.6,6.9,0L292,59C292.4,58.4,292.9,57.9,293.5,57.5z"/>
	<path class="st4" d="M173,123.6h26.3h4.9h13.5c6.8,0,12.4,5.5,12.4,12.4v0c0,6.8-5.5,12.4-12.4,12.4h-6c-3.7,0-7-1.6-9.3-4.2
		c-1.6-1.8-4.3-2-6.2-0.5c-3.7,2.9-8.3,4.7-13.4,4.7H173c-6.8,0-12.4-5.5-12.4-12.4v0C160.7,129.1,166.2,123.6,173,123.6z"/>
	<path class="st2" d="M191.2,126.3l5.8,2c0.8,0.3,1.8,0.3,2.6,0l5.8-2c1.6-0.6,2.7-2.1,2.7-3.7l0,0c0-2.2-1.8-4-4-4h-11.5
		c-2.2,0-4,1.8-4,4l0,0C188.6,124.3,189.7,125.8,191.2,126.3z"/>
	<path class="st4" d="M647.3,123.4h-7.4h-16.3c-3.7,0-6.7,3-6.7,6.7v0c0,7.9,5.9,14.8,13.9,15.5c1.7,0.1,3.4,0,5-0.4
		c5.2-1.3,10.5-1.3,15.7,0c1.6,0.4,3.2,0.5,5,0.4c7.9-0.7,13.9-7.5,13.9-15.5v0c0-3.7-3-6.7-6.7-6.7H647.3z"/>
	<path class="st2" d="M648.8,126.3l-5.8,2c-0.8,0.3-1.8,0.3-2.6,0l-5.8-2c-1.6-0.6-2.7-2.1-2.7-3.7l0,0c0-2.2,1.8-4,4-4h11.5
		c2.2,0,4,1.8,4,4l0,0C651.4,124.3,650.3,125.8,648.8,126.3z"/>
	<g>
		<g>
			<polygon class="st3" points="206.5,32.1 215.5,38.3 209.3,47.3 			"/>
			<polygon class="st3" points="127.5,46.3 121.3,55.3 130.2,61.6 			"/>
		</g>
		<path class="st8" d="M132,72.6l79.4-14.3l-2.5-13.6l-5.8-33.1c-0.3,0.1-0.7,0.1-1,0.2c-3.7,1-6.6,3.8-8,7.4l-4.6,12.1
			c-0.7,2-2.5,3.4-4.5,3.8l0,0c-2.5,0.4-5-0.7-6.2-2.9l-8.5-14.6c-1.4-2.4-4-4-6.8-3.9c-3.5,0.1-6.4,2.7-7,6.1l-2.9,16.9
			c-0.4,2.5-2.4,4.4-4.8,4.9l0,0c-2.1,0.4-4.2-0.4-5.6-1.9l-8.5-9.7c-2.5-2.9-6.2-4.5-10-4.2c-0.3,0-0.7,0.1-1,0.1L132,72.6z"/>
		<path class="st9" d="M211.1,61.7l-77.5,14c-2,0.4-4-1-4.4-3v0c-0.4-2,1-4,3-4.4l77.5-14c2-0.4,4,1,4.4,3v0
			C214.5,59.4,213.1,61.4,211.1,61.7z"/>
		
			<rect x="162.9" y="41.4" transform="matrix(0.5703 -0.8214 0.8214 0.5703 33.8885 158.4432)" class="st3" width="10.9" height="10.9"/>
	</g>
	<path class="st4" d="M110.2,129L110.2,129c-9.8-2.6-15.5-12.7-12.9-22.5l2.1-7.9c5-18.3,23.8-29.2,42.2-24.2l0,0
		c1.2,0.3,1.9,1.6,1.6,2.8l-10.5,38.9C130,125.8,119.9,131.6,110.2,129z"/>
</g>
</svg>
